<svg xmlns="http://www.w3.org/2000/svg" height="1200" width="1600" version="1.1" xmlns:xlink="http://www.w3.org/1999/xlink" xmlns:svgjs="http://svgjs.com/svgjs"><rect fill="#f3ebe9" width="1600" height="1200"></rect><g><path d="M72.4 974.91C72.4 974.91 73.88 877.26 177.31 871.48 177.31 871.48 190.35 792.8 267.55 816.07 267.55 816.07 292.89 689.52 413.8 689.52 540.5 689.52 567.62 838 567.62 838 567.62 838 676.83 838 691.64 974.91H72.4V974.91Z" fill="#ffa0dc" opacity="1" stroke-width="4" stroke="none"></path><path d="M567.62 838C567.62 838 540.5 689.52 413.8 689.52 292.89 689.52 267.55 816.07 267.55 816.07 237.02 806.88 216.58 813.55 202.94 824.96 208.28 835.03 215.09 845.11 223.69 854.89 312.15 957.13 437.66 886.01 437.66 886.01 486.41 971.06 573.69 917.57 573.69 917.57 603.77 960.84 656.82 965.13 687.94 951.06 663.79 838 567.62 838 567.62 838Z" fill="#ffffff" opacity="0.3" stroke-width="4" stroke="none"></path><path d="M567.62 838C570.14 855.48 571.62 879.19 571.62 879.19" stroke="#d07fb2" stroke-width="4" stroke-linecap="round" stroke-linejoin="round" opacity="1" fill="none"></path><path d="M267.7 816.07C282.66 821.4 296 833.25 296 833.25" stroke="#d07fb2" stroke-width="4" stroke-linecap="round" stroke-linejoin="round" opacity="1" fill="none"></path><path d="M177.31 871.48C174.34 883.04 173.16 895.05 173.75 906.9" stroke="#d07fb2" stroke-width="4" stroke-linecap="round" stroke-linejoin="round" opacity="1" fill="none"></path><path d="M484.56 818.66C491.98 797.85 478.32 773.95 454.05 765.28 429.76 756.61 404.07 766.47 396.63 787.27 389.21 808.08 402.87 831.98 427.14 840.65 451.43 849.32 477.12 839.46 484.56 818.66Z" fill="#fcdfd2" opacity="1" stroke-width="4" stroke="none"></path><path d="M449.81 806.26C451.38 801.87 448.52 796.83 443.44 795.01 438.34 793.2 432.95 795.29 431.39 799.68 429.82 804.08 432.67 809.1 437.75 810.92 442.85 812.73 448.24 810.66 449.81 806.26Z" fill="#ca5c2b" stroke="#ca5c2b" stroke-width="4" opacity="1"></path><path d="M331.79 933.22C357.87 926.87 374.63 903.63 369.19 881.28 363.76 858.93 338.22 845.95 312.14 852.3 286.04 858.62 269.3 881.87 274.72 904.22 280.16 926.58 305.71 939.56 331.79 933.22Z" fill="#fcdfd2" opacity="1" stroke-width="4" stroke="none"></path><path d="M324.13 901.67C329.86 900.29 333.52 895.16 332.33 890.23 331.13 885.3 325.52 882.44 319.8 883.83 314.06 885.21 310.39 890.33 311.59 895.27 312.79 900.2 318.41 903.06 324.13 901.67Z" fill="#7d452c" opacity="1" stroke-width="4" stroke="none"></path></g><g><path d="M669.37 974.48C669.75 855.19 756.39 790.58 860.59 813.3 860.59 813.3 938.07 572.26 1210.58 607.05 1487.67 642.55 1526.6 974.48 1526.6 974.48H669.37Z" fill="#ffa0dc" opacity="1" stroke-width="4" stroke="none"></path><path d="M1392.64 883.6C1132.34 979.8 992.64 759.34 992.64 759.34 953.71 777.8 914.02 781.71 878.52 772.12 865.55 796.26 860.2 812.95 860.2 812.95 756.39 790.23 669.75 854.84 668.99 974.12H1525.84C1525.84 974.12 1518.21 907.74 1484.62 831.05 1459.81 852.35 1429.28 870.11 1392.64 883.6Z" fill="#d07fb2" opacity="0.3" stroke-width="4" stroke="none"></path><path d="M860.2 813.3C847.23 854.48 844.17 865.85 838.07 896.38" stroke="#d07fb2" stroke-width="4" stroke-linecap="round" stroke-linejoin="round" opacity="1" fill="none"></path><path d="M1129.09 886.54C1182.91 873.37 1217.03 829.03 1205.31 787.53 1193.56 745.99 1140.43 722.99 1086.61 736.16 1032.8 749.3 998.68 793.64 1010.39 835.17 1022.15 876.71 1075.28 899.71 1129.09 886.54Z" fill="#fcdfd2" opacity="1" stroke-width="4" stroke="none"></path><path d="M1112.72 828.5C1124.93 825.52 1132.68 815.4 1130.01 805.92 1127.34 796.44 1115.24 791.19 1102.99 794.17 1090.77 797.15 1083.03 807.27 1085.7 816.75 1088.37 826.23 1100.47 831.52 1112.72 828.5Z" fill="#9c7563" opacity="1" stroke-width="4" stroke="none"></path></g><g><path d="M1116.9 411L1081.47 399.09" stroke="#1d180a" stroke-width="4" stroke-linecap="round" stroke-linejoin="round" opacity="1" fill="none"></path><path d="M1164.05 277.07C1164.05 235.16 1129.76 205.63 1097.38 231.35 1097.38 231.35 1068.8 210.2 1035.94 213.34 1005.93 216.11 1004.03 241.82 1003.08 250.4 1003.08 250.4 965.55 232.87 934.5 249.44 920.21 257.06 917.35 278.02 919.25 290.4 919.25 290.4 846.86 281.83 865.91 376.13L1164.05 277.07Z" fill="#1d180a" opacity="1" stroke-width="4" stroke="none"></path><path d="M475.19 870.87C475 857.15 481 844 491.48 835.24L593.97 794.76C556.06 831.34 535.2 856.86 523.48 885.25 511.77 913.63 507.01 947.07 490.15 1001.46 486.62 1012.79 482.14 1027.84 475.19 1047.37L465.38 1067.65 461.48 1060.13 426.14 1039.17C468.62 957.07 475.48 900.01 475.19 870.87Z" fill="#ffc930" opacity="1" stroke-width="4" stroke="none"></path><path d="M475.19 870.87C475 857.15 481 844 491.48 835.24L593.97 794.76C556.06 831.34 535.2 856.86 523.48 885.25 514.72 906.49 509.86 930.68 500.81 964.31 463.95 1005.74 443.57 1058.99 443.57 1058.99L426.14 1039.17C468.62 957.07 475.48 900.01 475.19 870.87Z" fill="#1d180a" opacity="0.3" stroke-width="4" stroke="none"></path><path d="M475.19 1047.37C467.38 1070.13 462.9 1080.99 462.9 1080.99L426.14 1039.28C428.33 1035.09 430.42 1030.9 432.42 1026.8L475.19 1047.37Z" fill="#1d180a" opacity="1" stroke-width="4" stroke="none"></path><path d="M494.53 597.87C458.33 572.16 404.32 557.96 355.08 585.11 291.17 620.26 278.59 681.41 221.44 718.94 181.15 745.42 139.33 755.52 139.33 755.52L231.73 784.66C269.73 774.28 303.36 748.18 303.36 748.18 284.97 775.42 256.78 792.57 256.78 792.57L312.5 811.43C312.5 811.43 348.51 792.76 378.23 730.46 403.66 677.12 419.09 597.68 484.34 619.02L494.53 597.87Z" fill="#1d180a" opacity="1" stroke-width="4" stroke="none"></path><path d="M1200.72 464.24C1200.72 464.24 1212.15 361.36 1215.01 344.22 1217.87 327.07 1219.77 290.88 1185.48 273.73 1151.19 256.59 1086.42 249.92 1011.17 282.31 935.92 314.69 859.72 368.98 819.72 399.46 779.71 429.95 695.89 500.43 626.36 523.29 556.82 546.15 501.58 562.34 476.81 626.16 452.05 689.98 508.24 776.66 508.24 776.66 508.24 776.66 506.05 815.43 462.62 847.43 451.57 855.62 444.81 868.39 444.23 882.01 443 906.77 435.47 951.45 404.04 1013.27L411.09 1027.17 396.99 1026.79C396.99 1026.79 395.18 1030.13 392.8 1034.41 392.8 1034.41 392.51 1034.89 392.42 1035.08 390.51 1038.51 399.18 1044.51 396.8 1048.6 408.23 1063.18 408.61 1057.84 420.04 1072.42 420.04 1072.42 420.71 1079.85 426.8 1067.46 426.8 1067.46 431.57 1068.51 433.76 1063.75 445.47 1038.22 454.05 1014.7 454.05 1014.7 477.48 950.59 477.86 934.02 494.05 900.39 507.39 872.77 533.1 856.58 573.11 822.29 613.12 788 628.36 770.85 648.36 724.18 648.36 724.18 672.36 687.98 712.27 675.12 752.18 662.26 795.43 681.89 856.96 672.74 943.07 659.98 983.07 604.73 983.07 604.73L1081.66 590.92 1041.65 621.4C1038.7 619.78 1035.65 618.16 1032.7 616.54 1028.7 614.35 1025.37 622.92 1021.36 620.73 1009.93 635.31 1008.6 638.55 997.17 653.12 1003.84 656.07 1002.7 660.26 1015.08 662.17 1015.08 662.17 1026.79 663.98 1038.89 663.31 1044.32 663.03 1103.19 646.83 1140.81 606.16 1152.24 593.78 1156.05 569.97 1140.81 557.58 1125.57 545.2 1068.42 521.39 1068.42 521.39 1068.42 521.39 1074.13 487.1 1060.8 435.66L1103.66 380.41C1103.66 380.41 1104.61 403.27 1123.66 423.28 1123.66 423.28 1127.28 457.57 1129.38 474.71 1131.29 489.95 1148.43 504.24 1165.58 504.24 1177.86 504.24 1196.91 494.72 1200.72 464.24Z" fill="#ffc930" opacity="1" stroke-width="4" stroke="none"></path><path d="M819.72 399.46C829.15 392.32 840.48 383.84 853.44 374.6 853.44 374.6 900.01 414.8 909.73 462.81 929.73 561.87 812.57 624.73 728.75 597.11 679.41 580.82 654.84 511.77 654.84 511.77 717.51 482.33 785.05 425.85 819.72 399.46Z" fill="#1d180a" opacity="0.3" stroke-width="4" stroke="none"></path><path d="M1210.63 299.07C1218.15 315.36 1216.82 333.55 1215.01 344.22 1212.15 361.36 1200.72 464.24 1200.72 464.24 1196.91 494.72 1177.86 504.24 1165.48 504.24 1148.34 504.24 1131.19 489.95 1129.28 474.71 1128.71 469.86 1127.95 463.57 1127.19 457 1127.19 457 1143.38 428.23 1179.29 454.71 1182.15 456.81 1186.25 456.23 1188.34 453.38 1189.01 452.52 1189.39 451.57 1189.58 450.42 1194.91 413.75 1208.82 298.97 1208.82 298.97L1210.63 299.07Z" fill="#fff0c5" opacity="1" stroke-width="4" stroke="none"></path><path d="M1020.7 609.97L1032.7 616.54 1014.98 662.17C995.46 659.6 986.5 653.79 986.5 653.79L1020.7 609.97Z" fill="#1d180a" opacity="1" stroke-width="4" stroke="none"></path><path d="M392.32 1035.09L433.66 1063.84C424.99 1082.51 419.66 1090.99 419.66 1090.99L385.37 1047.18C387.37 1043.94 390.04 1039.18 392.32 1035.09Z" fill="#1d180a" opacity="1" stroke-width="4" stroke="none"></path><path d="M438.42 1053.18C443 1042.7 448.24 1030.04 453.95 1014.8 473.95 961.46 480.62 928.12 493.96 900.5 504.24 879.26 521.86 864.68 547.68 843.44" stroke="#1d180a" stroke-width="4" stroke-linecap="round" stroke-linejoin="round" opacity="1" fill="none"></path><path d="M819.72 399.46C829.15 392.32 840.48 383.84 853.44 374.6 853.44 374.6 942.12 399.94 939.26 462.81 938.31 482.81 926.49 502.72 908.78 520.53 933.35 557.11 950.88 592.16 964.88 623.78 958.69 629.21 952.21 634.26 945.45 638.83 931.83 607.59 914.87 572.82 890.77 536.44 850.1 568.35 793.24 589.97 757.33 586.63 698.08 581.01 663.89 507.38 663.89 507.38 723.89 476.9 786.76 424.61 819.72 399.46Z" fill="#fff0c5" opacity="1" stroke-width="4" stroke="none"></path><path d="M834.67 388.22C834.67 388.22 884.96 408.51 899.25 433.28 921.16 471.28 863.06 539.01 803.05 533.29 762.09 529.48 763.04 484.71 763.04 484.71 763.04 484.71 745.04 507.58 713.51 507.58 686.17 507.58 671.7 480.24 665.98 465.76 663.98 460.71 665.31 454.9 669.31 451.28 672.93 447.95 678.08 446.9 682.74 448.52 706.75 456.9 741.04 459.66 763.9 442.61 786.28 425.85 805.71 410.23 819.81 399.46 824.29 396.04 829.24 392.23 834.67 388.22Z" fill="#ffa0dc" opacity="1" stroke-width="4" stroke="none"></path><path d="M1207.68 315.45L1264.45 281.64C1264.45 281.64 1242.25 263.06 1219.68 275.07 1202.34 284.21 1198.63 307.55 1198.63 307.55L1207.68 315.45Z" fill="#ffc930" opacity="1" stroke-width="4" stroke="none"></path><path d="M1208.82 303.64L1251.59 253.25C1251.59 253.25 1224.63 242.87 1207.11 261.54 1193.67 275.83 1197.77 299.07 1197.77 299.07L1208.82 303.64Z" fill="#ffc930" opacity="1" stroke-width="4" stroke="none"></path><path d="M1157.38 408.52L1174.72 269.07C1178.43 270.41 1181.96 272.03 1185.48 273.74 1219.77 290.89 1217.87 327.08 1215.01 344.23 1214.73 346.13 1214.25 348.99 1213.77 352.71 1203.1 340.89 1182.15 340.89 1182.15 340.89L1172.62 410.43 1204.34 432.43C1203.49 440.05 1202.72 446.91 1202.06 452.34L1162.15 425.67 1125.38 440.43C1124.33 430.72 1123.57 423.29 1123.57 423.29L1157.38 408.52Z" fill="#ffa0dc" opacity="1" stroke-width="4" stroke="none"></path><path d="M1190.25 372.32C1187.88 372.32 1185.96 370.4 1185.96 368.03 1185.96 365.67 1187.88 363.75 1190.25 363.75 1192.62 363.75 1194.53 365.67 1194.53 368.03 1194.53 370.4 1192.62 372.32 1190.25 372.32Z" fill="#000000" opacity="1" stroke-width="4" stroke="none"></path><path d="M1236.54 270.98L1211.39 300.7" stroke="#1d180a" stroke-width="4" stroke-linecap="round" stroke-linejoin="round" opacity="1" fill="none"></path><path d="M1081.66 590.92L1117.38 584.73" stroke="#1d180a" stroke-width="4" stroke-linecap="round" stroke-linejoin="round" opacity="1" fill="none"></path><path d="M1103.57 380.41C1101.76 351.46 1119.28 334.22 1119.28 334.22" stroke="#1d180a" stroke-width="4" stroke-linecap="round" stroke-linejoin="round" opacity="1" fill="none"></path><path d="M763.04 484.71L770.66 473.28" stroke="#ffa0dc" stroke-width="4" stroke-linecap="round" stroke-linejoin="round" opacity="1" fill="none"></path><path d="M1141.19 470.43L1004.12 388.22" stroke="#1d180a" stroke-width="4" stroke-linecap="round" stroke-linejoin="round" opacity="1" fill="none"></path><path d="M908.78 520.54L890.77 536.45" stroke="#1d180a" stroke-width="4" stroke-linecap="round" stroke-linejoin="round" opacity="1" fill="none"></path><path d="M1185.77 476.9C1186.44 479.95 1172.81 490.24 1169.1 487.67 1165.39 485.1 1168.24 477.67 1173.48 476.9 1178.72 476.14 1185.29 474.71 1185.77 476.9Z" fill="#1d180a" opacity="1" stroke-width="4" stroke="none"></path><path d="M1145 498.05C1142.14 487.38 1141.19 473.28 1142.14 459.95" stroke="#1d180a" stroke-width="4" stroke-linecap="round" stroke-linejoin="round" opacity="1" fill="none"></path><path d="M508.24 776.66C509.67 763.8 510.05 753.52 510.05 753.52" stroke="#1d180a" stroke-width="4" stroke-linecap="round" stroke-linejoin="round" opacity="1" fill="none"></path><path d="M303.26 748.19C316.31 730.47 327.17 706.47 327.17 706.47" stroke="#1d180a" stroke-width="4" stroke-linecap="round" stroke-linejoin="round" opacity="1" fill="none"></path><path d="M1081.66 590.92L1114.52 585.68C1115 591.78 1093.57 598.06 1077.37 606.64 1067.09 611.97 1057.27 617.97 1047.84 624.73L1041.65 621.4 1081.66 590.92Z" fill="#1d180a" opacity="0.3" stroke-width="4" stroke="none"></path><path d="M1103.57 380.41C1101.19 348.5 1119.28 334.22 1119.28 334.22 1115.47 331.36 1102.04 334.22 1098.23 342.79 1094.71 350.79 1087.09 362.41 1078.33 376.13 1064.99 397.08 1048.8 393.27 1044.99 402.8 1055.46 418.04 1060.7 435.66 1060.7 435.66L1103.57 380.41Z" fill="#1d180a" opacity="0.3" stroke-width="4" stroke="none"></path><path d="M925.64 309.74C926.68 309.74 927.73 309.64 928.68 309.45 937.16 307.64 941.92 300.31 946.5 293.26L946.97 292.59C947.16 292.59 947.74 292.69 948.5 292.69 950.69 292.69 954.4 292.4 955.74 290.59 957.16 288.5 954.21 283.83 953.64 283.07 959.36 275.07 964.5 267.26 965.74 260.4 967.93 247.92 958.78 247.25 945.93 235.92 940.02 230.58 936.3 232.01 928.4 231.92 918.49 231.92 913.63 228.68 905.92 236.97 900.97 242.3 891.63 239.73 886.87 244.97 880.87 251.44 874.68 258.21 866.77 266.68L866.68 266.78 893.54 307.83 905.92 296.4C910.3 304.21 918.4 309.74 925.64 309.74Z" fill="#f9b298" opacity="1" stroke-width="4" stroke="none"></path><path d="M889.73 273.55C896.58 273.55 903.25 271.55 908.87 267.74 911.44 266.03 913.16 263.36 913.63 260.31 915.64 248.21 909.35 236.12 909.25 235.93L910.3 237.93C905.35 243.26 891.63 239.55 886.87 244.79 880.87 251.26 873.82 257.45 865.91 265.93L866.58 266.69 866.77 266.79C866.87 266.79 876.96 273.55 889.73 273.55Z" fill="#c65a42" opacity="1" stroke-width="4" stroke="none"></path><path d="M865.63 499.67C865.72 499.67 865.72 499.67 865.72 499.57L865.82 496.43C866.39 471.86 865.15 457.95 862.2 449.38 852.77 422.04 781.9 373.56 781.14 373.08L763.61 338.88 706.65 332.03H706.56C694.37 339.93 686.27 356.79 685.98 374.98 685.6 395.46 694.65 413.85 710.94 425.47 745.52 450.14 793.24 473.76 796 475.19 795.81 476.43 795.05 486.52 794.57 500.72V501.86L865.63 499.67Z" fill="#3c2c5b" opacity="1" stroke-width="4" stroke="none"></path><path d="M813.33 466.62C812.76 466.14 812.76 466.05 812.48 465.76 810.38 463.57 807.52 462.81 804.76 464.52 793.81 470.62 784 466.05 780.66 467.09L780.19 467.19 780.57 467.38C790 472.33 796.19 475.38 796.19 475.38L796.48 475.48 813.33 466.62Z" fill="#000000" opacity="0.3" stroke-width="4" stroke="none"></path><path d="M784.19 368.52L763.71 338.99 706.75 332.13H706.65C703.41 334.32 700.75 336.32 697.99 339.85L697.79 340.04 708.56 372.52 754.85 349.85 734.18 385.66 757.33 409.76 784.19 368.52Z" fill="#000000" opacity="0.3" stroke-width="4" stroke="none"></path><path d="M979.07 406.05C988.31 406.05 990.12 403.57 991.74 401.09 992.69 401.09 999.46 400.52 1000.41 393.38 1001.17 392.9 1006.79 389.09 1003.27 382.81 1004.03 380.9 1003.93 378.71 1002.98 376.9 1001.65 374.23 998.5 372.33 993.74 371.28 994.22 369.76 994.03 368.04 993.07 366.71 991.07 363.66 986.12 361.94 978.22 361.75 976.31 361.66 974.31 361.66 972.21 361.66 964.02 361.66 954.97 361.94 944.59 362.8L944.02 362.99 947.54 405 948.02 404.9C948.12 404.9 960.4 405 974.5 405.95 976.12 405.95 977.74 406.05 979.07 406.05Z" fill="#f9b298" opacity="1" stroke-width="4" stroke="none"></path><path d="M885.44 416.99C911.92 416.99 947.54 405.08 947.93 404.89H948.02L944.59 362.79H944.4C922.4 364.6 902.78 367.84 900.4 368.22 901.35 348.22 901.35 314.88 901.35 302.31 901.35 290.88 888.96 263.45 858.48 263.45 854.86 263.45 851.34 263.83 847.82 264.49 828.48 268.11 808 278.21 788.19 288.02 776.38 293.83 765.23 299.36 754.37 303.55 725.23 314.88 691.89 321.55 691.51 321.64L691.22 321.74 713.32 358.32 751.04 347.93 728.47 376.22 754.47 396.42 779.23 372.6 790.67 379.84 845.72 364.03C846.01 367.27 849.63 403.85 863.91 412.51 868.77 415.47 876.01 416.99 885.44 416.99Z" fill="#3c2c5b" opacity="1" stroke-width="4" stroke="none"></path><path d="M905.92 297.07L912.59 278.97" stroke="#000000" stroke-width="4" stroke-linecap="round" stroke-linejoin="round" opacity="1" fill="none"></path><path d="M917.54 284.31C922.59 284.31 927.26 281.45 931.16 275.92 932.97 273.35 934.4 270.68 935.54 267.73L970.98 275.64C971.17 275.73 971.45 275.73 971.64 275.73 972.79 275.73 973.74 275.07 974.22 274.11 974.69 273.16 974.6 271.92 973.93 271.07L965.74 260.11C967.93 247.63 962.69 236.11 949.74 224.87 943.83 219.53 936.21 216.58 928.3 216.49 918.4 216.49 908.68 221.06 900.97 229.35L895.92 234.77C890.3 240.78 883.34 248.11 878.01 253.73L877.82 253.92 898.01 260.02C898.01 261.83 898.01 280.21 914.4 283.83 915.44 284.11 916.49 284.31 917.54 284.31Z" fill="#3c2c5b" opacity="1" stroke-width="4" stroke="none"></path><path d="M936.4 293.26C934.4 291.83 933.26 289.54 933.54 287.07" stroke="#000000" stroke-width="4" stroke-linecap="round" stroke-linejoin="round" opacity="1" fill="none"></path><path d="M845.72 364.03L846.01 334.6" stroke="#0b0b0b" stroke-width="4" stroke-linecap="round" stroke-linejoin="round" opacity="1" fill="none"></path><path d="M775.23 294.59L806.19 374.6" stroke="#0b0b0b" stroke-width="4" stroke-linecap="round" stroke-linejoin="round" opacity="1" fill="none"></path><path d="M900.2 368.51L892.58 376.13" stroke="#0b0b0b" stroke-width="4" stroke-linecap="round" stroke-linejoin="round" opacity="1" fill="none"></path><path d="M796.38 475.19L813.53 466.62" stroke="#000000" stroke-width="4" stroke-linecap="round" stroke-linejoin="round" opacity="1" fill="none"></path><path d="M993.74 371.27C988.03 370.32 977.36 369.46 977.36 369.46" stroke="#000000" stroke-width="4" stroke-linecap="round" stroke-linejoin="round" opacity="1" fill="none"></path><path d="M1003.08 382.8L990.69 380.89" stroke="#000000" stroke-width="4" stroke-linecap="round" stroke-linejoin="round" opacity="1" fill="none"></path><path d="M1000.22 393.27L988.79 391.37" stroke="#000000" stroke-width="4" stroke-linecap="round" stroke-linejoin="round" opacity="1" fill="none"></path><path d="M991.65 400.89L984.98 399.94" stroke="#000000" stroke-width="4" stroke-linecap="round" stroke-linejoin="round" opacity="1" fill="none"></path><path d="M945.93 278.97C944.88 278.97 944.02 278.12 944.02 277.07 944.02 276.02 944.88 275.16 945.93 275.16 946.98 275.16 947.83 276.02 947.83 277.07 947.83 278.12 946.98 278.97 945.93 278.97Z" fill="#000000" opacity="1" stroke-width="4" stroke="none"></path><path d="M751.04 347.93L763.23 332.69" stroke="#0b0b0b" stroke-width="4" stroke-linecap="round" stroke-linejoin="round" opacity="1" fill="none"></path><path d="M903.06 615.3C903.16 615.3 903.16 615.21 903.16 615.11L901.63 613.78C896.97 609.3 892.39 607.68 886.58 604.92 877.73 600.64 869.25 596.64 866.1 587.49 862.58 577.49 863.63 552.53 864.77 526.05 865.15 516.24 865.63 506.15 865.82 496.62V496.53 496.43C865.63 496.15 850.58 472.05 830.77 472.05 810.95 472.05 794.76 498.05 794.67 498.34V498.43C794 513.2 794.28 528.05 795.43 542.82 797.9 572.54 804.19 601.87 814.1 630.07L814.19 630.26 903.06 615.3Z" fill="#cecece" opacity="1" stroke-width="4" stroke="none"></path><path d="M909.92 625.7C908.49 621.7 906.49 618.17 903.35 615.31L902.4 614.46C902.4 614.46 902.3 614.36 902.3 614.46L813.91 629.41 814.19 630.08C816.67 637.03 818.19 641.03 818.19 641.03L909.92 625.7Z" fill="#ffa0dc" opacity="1" stroke-width="4" stroke="none"></path><path d="M830.67 472.33V528.53" stroke="#202020" stroke-width="4" stroke-linecap="round" stroke-linejoin="round" opacity="1" fill="none"></path><path d="M845.72 364.03C845.72 363.94 845.15 349.08 846.1 327.45V327.26H845.91C845.82 327.26 845.82 327.26 845.72 327.26 844.86 327.26 841.82 327.64 840.01 332.12 838.1 336.88 835.05 342.6 830.48 351.17 826.48 358.6 821.62 365.65 816.1 372.03L815.43 372.7 845.72 364.03Z" fill="#0b0b0b" opacity="0.3" stroke-width="4" stroke="none"></path></g></svg>