<svg xmlns="http://www.w3.org/2000/svg" height="1200" width="1600" version="1.1" xmlns:xlink="http://www.w3.org/1999/xlink" xmlns:svgjs="http://svgjs.com/svgjs"><rect fill="#f3ebe9" width="1600" height="1200"></rect><g><path d="M1441.41 910.41C1441.41 910.41 1173.04 559.7 678.01 559.7 199.51 559.7 154.65 910.41 154.65 910.41L1441.41 910.41Z" fill="#efdcd7" opacity="1" stroke-width="4" stroke="none"></path><path d="M669.36 910.41C705.56 773.28 848.79 658.13 1056.57 633.28 1308.41 736.01 1441.41 910.41 1441.41 910.41L669.36 910.41Z" fill="#daab9f" opacity="0.3" stroke-width="4" stroke="none"></path></g><g><path d="M1407.59 574.81L1417.05 599.76 1398.19 583.2 1394.78 600.28 1389.08 584.07 1373.42 598.57 1382.27 578.07 1354.47 577.78 1382.29 568.21 1360.9 548.76 1388.26 556.27 1392.77 527.72 1400.08 555.89 1422 537.79 1407.5 565.06 1434.34 571.96 1407.59 574.81Z" fill="#ffffff" opacity="1" stroke-width="4" stroke="none"></path></g><g><path d="M237.23 475.11L248.64 492.54 230.93 483.2 224.84 514.52 218.29 481.1 190.26 494.82 210.7 470.77 185.22 445.85 216.4 457.19 218.78 422.37 229.7 453.97 257.28 438.01 238 464.51 265.89 473.4 237.23 475.11Z" fill="#ffffff" opacity="1" stroke-width="4" stroke="none"></path></g><g><path d="M534.41 472.27C519.01 457.29 506.72 439.4 498.24 419.65 489.77 399.9 485.27 378.68 485.02 357.17 484.77 335.7 488.76 314.36 496.77 294.42 504.77 274.48 516.64 256.32 531.69 240.98 546.73 225.65 564.66 213.4 584.44 205.02 604.22 196.61 625.46 192.2 646.95 192.01 668.44 191.85 689.75 195.93 709.66 204.01 729.57 212.09 747.69 224.03 762.98 239.12 763.75 239.89 764.51 240.63 765.26 241.39L796.64 272.78 827.32 241.39C842.41 225.97 860.43 213.7 880.31 205.29 900.17 196.89 921.51 192.48 943.09 192.37 964.68 192.26 986.07 196.42 1006.04 204.64 1026 212.83 1044.14 224.93 1059.39 240.19 1074.65 255.45 1086.73 273.58 1094.95 293.55 1103.16 313.51 1107.33 334.91 1107.19 356.49 1107.08 378.07 1102.7 399.41 1094.29 419.3 1085.85 439.15 1073.58 457.18 1058.16 472.27L798.03 732.4 534.41 472.27Z" fill="#ffa0dc" opacity="1" stroke-width="4" stroke="none"></path></g><g><path d="M487.5 977.43C486 961.89 485.83 946.27 486.71 930.3 486.71 930.3 486.71 930.21 486.79 930.21 489.25 929.77 543.06 924.33 560.79 930.21L560.87 930.3C558.94 940.04 558.07 946.53 558.33 952.33 558.33 952.41 558.33 952.41 558.24 952.41H537.44C537.26 952.41 537.09 952.41 536.91 952.41 530.77 952.77 526.03 958.12 526.73 964.35 526.73 964.35 527.96 976.55 528.14 977.78 528.14 977.87 528.14 977.87 528.05 977.87L487.5 977.43C487.5 977.52 487.5 977.52 487.5 977.43Z" fill="#cf5934" opacity="1" stroke-width="4" stroke="none"></path><path d="M605.38 977.78C602.48 962.25 599.93 945.48 599.14 930.12 599.14 930.12 599.14 930.03 599.23 930.03 641.63 920.03 678.31 929.77 678.58 930.38 678.58 937.76 679.37 944.87 680.51 952.24 680.51 952.33 680.51 952.33 680.42 952.33H662.25C661.9 952.33 661.46 952.33 661.11 952.41 655.23 953.03 650.93 958.3 651.54 964.26L652.86 977.69C652.86 977.78 652.86 977.78 652.77 977.78H605.38Z" fill="#cf5934" opacity="1" stroke-width="4" stroke="none"></path><path d="M678.93 795.83C674.45 697 649.26 624.06 648.74 623H557.28V623.09C542.53 623.09 529.8 623.09 529.19 623.09 512.86 669.61 512.07 706.91 515.76 769.14 517.51 799.78 515.41 807.94 507.77 832.96 504.09 845.51 496.62 869.73 492.06 889.92 489.25 903.61 487.41 917.13 486.79 930.12 486.79 930.21 486.79 930.21 486.88 930.21 490.13 930.21 557.1 930.21 560.87 930.21 560.87 930.21 560.96 930.21 560.96 930.12 563.42 919.24 567.28 904.93 571.14 890.27 580.1 860.25 589.84 816.81 596.42 775.03 609.68 828.13 594.32 861.83 599.23 929.94 603.71 929.94 677.61 930.3 678.58 930.3 678.58 928.89 678.93 907.21 679.37 890.1 679.81 864.64 680.68 833.83 678.93 795.83Z" fill="#ff4f32" opacity="1" stroke-width="4" stroke="none"></path><path d="M623.63 749.75C621 726.93 616.43 698.4 604.41 695.15 604.32 695.15 604.32 695.15 604.32 695.24 604.06 717.27 600.9 746.32 596.33 775.11 609.5 826.72 594.49 855.95 599.06 929.94 599.06 930.03 599.06 930.03 599.14 930.03 600.28 930.03 613.19 930.12 614.33 930.12 614.42 930.12 614.42 930.12 614.42 930.03 613.45 849.98 630.48 823.3 623.63 749.75Z" fill="#230500" opacity="0.2" stroke-width="4" stroke="none"></path><path d="M604.32 695.5C603.01 725.08 599.76 747.73 596.51 776.87" stroke="#230500" stroke-width="4" stroke-linecap="round" stroke-linejoin="round" opacity="1" fill="none"></path><path d="M516.55 930.3C523.13 890.36 543.76 847.7 549.73 804.87 557.45 748.69 543.41 669.52 546.83 623.53" stroke="#230500" stroke-width="4" stroke-linecap="round" stroke-linejoin="round" opacity="1" fill="none"></path><path d="M564.65 767.13C561.05 767.13 557.89 764.67 557.28 764.14 557.28 764.14 557.28 764.14 557.19 764.14 552.19 765.11 549.46 761.42 547.62 753.96 547.01 751.33 546.74 748.61 546.66 746.67 546.66 746.59 546.48 746.59 546.48 746.67 545.69 751.5 543.76 760.63 539.63 760.63 532.61 760.63 531.56 740.88 531.56 729.03V728.94C525.59 725.08 519.8 720.69 513.92 715.6 513.92 715.6 513.92 715.6 513.92 715.52 514.09 695.33 515.67 676.72 519.18 659.08 521.55 646.79 524.8 635.03 529.28 623.18 529.28 623.09 529.36 623.09 529.45 623.18 532 627.3 583.43 710.78 574.92 753.35 572.81 764.76 568.16 767.13 564.65 767.13Z" fill="#230500" opacity="0.2" stroke-width="4" stroke="none"></path><path d="M560.26 462.55C560.17 462.55 560.17 462.47 560.26 462.55 558.77 437.71 557.19 411.91 556.92 402.25 556.66 362.23 612.22 357.14 631.97 383.47 634.43 386.72 636.18 389.97 637.24 393.92 638.29 398.13 638.55 403.22 638.99 408.13 639.43 412.44 639.78 416.56 640.48 419.46 646.8 443.33 638.55 460.36 615.56 457.55 615.47 457.55 615.47 457.55 615.47 457.64 615.47 458.34 615.47 462.12 615.47 462.64 615.47 462.64 615.47 462.73 615.38 462.73L588.17 469.14 560.26 462.55Z" fill="#cf5934" opacity="1" stroke-width="4" stroke="none"></path><path d="M599.67 451.67C607.04 456.06 614.24 457.29 615.38 457.73 615.38 457.73 615.47 457.73 615.47 457.81 615.47 458.6 615.47 467.82 615.47 469.14 615.47 469.22 615.38 469.22 615.29 469.22 613.8 468 601.16 454.04 599.49 451.85 599.49 451.67 599.58 451.58 599.67 451.67Z" fill="#030202" opacity="0.2" stroke-width="4" stroke="none"></path><path d="M490.57 1001.22C490.57 1001.13 490.57 1001.13 490.66 1001.13L541.83 995.25 598 1001.04C598 1001.04 598.09 1001.04 598.09 1001.13 600.64 1006.48 600.64 1012.1 600.64 1012.89 600.64 1012.98 600.64 1012.98 600.55 1012.98H492.85C492.85 1012.98 492.76 1012.98 492.76 1012.89 492.59 1012.28 491.71 1008.15 490.57 1001.22Z" fill="#525252" opacity="1" stroke-width="4" stroke="none"></path><path d="M490.57 1001.04C489.25 993.49 488.37 986.38 487.5 977.61 487.5 977.52 487.5 977.52 487.58 977.52 489.69 977.52 525.77 977.52 527.78 977.52 527.87 977.52 527.87 977.52 527.87 977.43 527.78 976.03 526.29 963.56 526.38 963.21 526.38 957.07 531.38 952.06 537.53 952.06 538.05 952.24 555.52 952.24 558.15 952.24 558.24 952.24 558.24 952.24 558.24 952.33 558.42 959.26 560 964.35 563.33 968.3 569.21 975.5 575.97 980.5 581.94 984.89 588.08 989.54 593.97 993.67 597.48 999.72L598.09 1001.04C598.09 1001.13 598.09 1001.13 598 1001.13L490.57 1001.04C490.57 1001.13 490.57 1001.13 490.57 1001.04Z" fill="#cecece" opacity="1" stroke-width="4" stroke="none"></path><path d="M610.55 1001.13C608.71 993.4 606.78 985.86 605.29 977.69 605.29 977.61 605.29 977.61 605.38 977.61 607.66 977.61 650.23 977.61 652.42 977.61 652.51 977.61 652.51 977.61 652.51 977.52 652.42 976.11 650.93 963.65 651.02 963.3 651.02 957.15 656.02 952.15 662.16 952.15L680.42 952.24C680.42 952.24 680.42 952.33 680.51 952.41 681.91 959.61 684.02 964.7 687.09 968.39 692.97 975.59 699.73 980.59 705.7 984.98 710.88 988.84 715.71 992.44 719.22 996.83 720.18 997.97 721.15 999.37 721.85 1001.13 721.85 1001.22 721.85 1001.22 721.76 1001.22 719.74 1001.57 691.48 1006.83 671.73 1006.75 639.34 1006.75 610.55 1001.13 610.55 1001.13Z" fill="#cecece" opacity="1" stroke-width="4" stroke="none"></path><path d="M652.6 977.69L656.55 1000.95" stroke="#525252" stroke-width="4" stroke-linecap="round" stroke-linejoin="round" opacity="1" fill="none"></path><path d="M527.96 977.69L531.38 1000.95" stroke="#525252" stroke-width="4" stroke-linecap="round" stroke-linejoin="round" opacity="1" fill="none"></path><path d="M529.1 623.27C526.99 617.12 540.6 488.18 541.3 477.91 541.3 477.91 541.3 477.83 541.39 477.83 547.36 474.67 553.85 472.82 560.7 471.95 560.79 471.95 560.79 471.95 560.79 471.86 560.52 469.14 560.26 463.34 560.26 462.55 560.26 462.47 560.26 462.47 560.35 462.47L615.47 462.29C615.56 462.29 615.56 462.29 615.56 462.38V471.86C615.56 471.95 615.56 471.95 615.65 471.95 617.49 471.95 629.43 472.38 637.41 476.33 641.19 478.27 650.67 496.43 647.16 509.78V509.86C666.38 532.86 650.23 562.26 648.91 564.55V564.63C659.88 579.82 659.79 590 648.91 603.78 648.91 603.78 648.91 603.78 648.91 603.87V623.18C648.91 623.27 648.91 623.27 648.82 623.27 645.31 623.35 532.17 623.09 529.1 623.27 529.1 623.35 529.1 623.35 529.1 623.27Z" fill="#cecece" opacity="1" stroke-width="4" stroke="none"></path><path d="M637.15 623.27L626.79 603.87C624.6 603.61 594.67 599.13 590.1 591.58 582.64 582.1 649.09 564.72 648.82 564.63 659.79 579.91 659.88 590.18 648.82 603.96V623.27H637.15Z" fill="#525252" opacity="0.2" stroke-width="4" stroke="none"></path><path d="M529.1 623.09V583.15C529.45 583.24 555.08 518.2 555.78 519.08 552.89 528.82 551.22 552.26 561.05 564.81 560.79 564.98 544.81 587.02 566.4 604.13V623.27L529.1 623.09Z" fill="#525252" opacity="0.2" stroke-width="4" stroke="none"></path><path d="M648.65 603.87H529.28" stroke="#525252" stroke-width="4" stroke-linecap="round" stroke-linejoin="round" opacity="1" fill="none"></path><path d="M648.65 564.72H546.83" stroke="#525252" stroke-width="4" stroke-linecap="round" stroke-linejoin="round" opacity="1" fill="none"></path><path d="M638.47 623.18V603.87" stroke="#525252" stroke-width="4" stroke-linecap="round" stroke-linejoin="round" opacity="1" fill="none"></path><path d="M616.87 623.27V604.22" stroke="#525252" stroke-width="4" stroke-linecap="round" stroke-linejoin="round" opacity="1" fill="none"></path><path d="M595.28 623.18V604.22" stroke="#525252" stroke-width="4" stroke-linecap="round" stroke-linejoin="round" opacity="1" fill="none"></path><path d="M573.69 623.18V604.22" stroke="#525252" stroke-width="4" stroke-linecap="round" stroke-linejoin="round" opacity="1" fill="none"></path><path d="M552.1 623.53V604.22" stroke="#525252" stroke-width="4" stroke-linecap="round" stroke-linejoin="round" opacity="1" fill="none"></path><path d="M560.7 472.03C560.7 472.03 556.05 472.21 551.48 473.88" stroke="#525252" stroke-width="4" stroke-linecap="round" stroke-linejoin="round" opacity="1" fill="none"></path><path d="M646.01 509.95H557.45" stroke="#525252" stroke-width="4" stroke-linecap="round" stroke-linejoin="round" opacity="1" fill="none"></path><path d="M682.88 623.44C666.03 622.48 655.58 615.72 636.89 596.58 636.62 596.5 651.9 551.64 651.9 551.47 652.07 551.2 660.41 526.98 645.66 509.86 647.07 507.14 650.49 491.87 636.97 476.42 636.89 476.33 636.97 476.25 637.06 476.25 638.29 476.42 639.52 477.48 640.75 478.18 673.93 495.29 729.05 577.01 706.31 610.89 701.14 618.79 692.36 623.44 682.88 623.44Z" fill="#9e76dd" opacity="1" stroke-width="4" stroke="none"></path><path d="M667.34 556.82L651.9 551.47C655.49 540.23 654.09 530.05 653.91 528.56 653.91 528.47 654 528.47 654.09 528.47 656.55 530.23 685.25 550.77 688.76 571.74 688.67 571.74 667.34 556.82 667.34 556.82Z" fill="#000000" opacity="0.2" stroke-width="4" stroke="none"></path><path d="M573.78 742.9C571.23 742.9 568.86 740.97 568.07 740.27 567.98 740.18 567.81 740.18 567.72 740.18 566.84 740.62 565.97 740.88 565.09 740.88 561.05 740.88 558.24 735.53 556.66 724.91 555.96 720.08 555.7 715.16 555.52 712.09 555.52 711.74 554.99 711.65 554.82 712 552.54 718.5 546.74 733.86 542.44 733.86 542 733.86 541.65 733.68 541.3 733.25 538.05 729.3 542.62 705.16 543.14 702.26 543.14 702.17 543.14 702.09 543.06 702 533.49 691.47 533.49 677.69 533.49 675.93 533.49 675.84 533.49 675.75 533.4 675.67 532.79 674.96 530.24 672.16 526.64 667.94L526.2 667.33 565 638.19 565.09 638.36C569.83 646.53 573.43 652.67 575.01 656.27 581.59 670.4 589.05 694.8 588.17 716.92 587.47 735.35 582.2 737.37 579.92 737.37 579.66 737.37 579.39 737.37 579.31 737.28 578.17 741.15 576.32 742.9 573.78 742.9Z" fill="#cf5934" opacity="1" stroke-width="4" stroke="none"></path><path d="M526.73 668.03H526.64C515.15 654.6 487.94 620.9 482.58 598.69 479.42 585.79 481.97 568.67 490.13 547.69 501.1 521.8 515.76 490.29 541.3 478H541.39C542.71 478.79 568.07 500.91 557.36 543.92 552.45 564.37 537.26 589.82 536.47 591.58V591.67C537.97 594.13 554.2 619.58 565.26 638.45V638.54C563.68 639.77 528.4 667.06 526.73 668.03Z" fill="#9e76dd" opacity="1" stroke-width="4" stroke="none"></path><path d="M536.47 591.58L542.71 601.41" stroke="#000000" stroke-width="4" stroke-linecap="round" stroke-linejoin="round" opacity="1" fill="none"></path><path d="M579.31 737.28C580.27 723.42 580.01 709.37 578.43 695.5" stroke="#030202" stroke-width="4" stroke-linecap="round" stroke-linejoin="round" opacity="1" fill="none"></path><path d="M567.9 739.92C568.34 726.57 567.72 713.23 566.14 699.89" stroke="#030202" stroke-width="4" stroke-linecap="round" stroke-linejoin="round" opacity="1" fill="none"></path><path d="M580.89 424.72L587.73 427.44" stroke="#030202" stroke-width="4" stroke-linecap="round" stroke-linejoin="round" opacity="1" fill="none"></path><path d="M625.91 422.53L626.09 422.35C626.88 421.56 627.23 420.42 626.88 419.37L626.35 417.44" stroke="#030202" stroke-width="4" stroke-linecap="round" stroke-linejoin="round" opacity="1" fill="none"></path><path d="M620.65 429.99C622.93 432.89 626.97 432.71 628.2 431.83" stroke="#030202" stroke-width="4" stroke-linecap="round" stroke-linejoin="round" opacity="1" fill="none"></path><path d="M615.65 416.91C616.91 416.91 617.93 415.89 617.93 414.63 617.93 413.37 616.91 412.35 615.65 412.35 614.38 412.35 613.36 413.37 613.36 414.63 613.36 415.89 614.38 416.91 615.65 416.91Z" fill="#231f20" opacity="1" stroke-width="4" stroke="none"></path><path d="M633.81 415.77C635.08 415.77 636.1 414.75 636.1 413.49 636.1 412.22 635.08 411.21 633.81 411.21 632.56 411.21 631.53 412.22 631.53 413.49 631.53 414.75 632.56 415.77 633.81 415.77Z" fill="#231f20" opacity="1" stroke-width="4" stroke="none"></path><path d="M564.12 448.69C561.23 448.69 559.65 448.42 559.38 448.42L559.29 448.16C558.07 426.92 557.1 406.03 556.84 398.74 556.31 380.49 571.41 364.86 590.37 363.81 613.1 363.02 633.64 371.45 637.24 393.83V393.92L637.06 394C636.97 394 631.71 396.55 623.98 396.55 623.9 396.55 623.81 396.55 623.81 396.55 620.74 396.55 617.75 396.11 614.77 395.32 613.63 395.06 612.57 394.71 611.52 394.27 611.17 394.27 610.2 393.3 610.29 394.27 608.97 410.59 599.93 419.37 599.58 419.11 597.3 416.91 579.66 404.62 572.37 415.51 564.47 426.92 582.03 442.72 582.47 443.16 576.67 447.72 569.39 448.69 564.12 448.69Z" fill="#ffffff" opacity="1" stroke-width="4" stroke="none"></path><path d="M599.41 451.49C603.8 453.86 610.47 456.41 615.73 457.64" stroke="#030202" stroke-width="4" stroke-linecap="round" stroke-linejoin="round" opacity="1" fill="none"></path><path d="M689.55 971.37L679.98 978.04" stroke="#525252" stroke-width="4" stroke-linecap="round" stroke-linejoin="round" opacity="1" fill="none"></path><path d="M697.36 978.66L689.55 987.17" stroke="#525252" stroke-width="4" stroke-linecap="round" stroke-linejoin="round" opacity="1" fill="none"></path><path d="M565.97 971.29L556.22 978.04" stroke="#525252" stroke-width="4" stroke-linecap="round" stroke-linejoin="round" opacity="1" fill="none"></path><path d="M573.34 978.22L565.79 987.17" stroke="#525252" stroke-width="4" stroke-linecap="round" stroke-linejoin="round" opacity="1" fill="none"></path><path d="M667.26 556.82C666.11 556.03 642.76 539.8 639.44 538.8 637.9 538.33 632.92 537.17 632.2 536.98L630.97 536.71V536.7C615.28 533.31 609.24 535.05 609.24 537.95 609.24 541.64 616.56 546.55 616.35 546.55 599.93 546.46 589.05 539.36 585.54 536.63 584.49 535.84 582.99 535.49 581.76 536.02 580.71 536.37 580.01 537.07 579.39 537.95 577.11 541.11 578.78 546.55 579.22 547.61V547.69C577.38 548.92 576.32 550.41 576.06 552.26 575.53 555.42 577.81 558.49 578.43 559.19V559.28C572.55 567.71 588.35 575.61 592.65 577.45 592.74 577.45 592.74 577.62 592.65 577.62 589.49 577.98 581.15 579.56 585.63 584.03 588.79 587.19 609.68 587.63 621.79 587.63 625.39 587.63 628.02 587.54 628.64 587.54H628.72C631.8 591.05 634.52 594.04 637.15 596.76L637.5 597.11C637.41 597.02 666.55 559.02 667.61 557.09 667.34 556.82 667.34 556.82 667.26 556.82Z" fill="#cf5934" opacity="1" stroke-width="4" stroke="none"></path><path d="M593.35 577.54L602.13 580.52" stroke="#030202" stroke-width="4" stroke-linecap="round" stroke-linejoin="round" opacity="1" fill="none"></path><path d="M578.43 559.1C583.7 562.97 593.35 568.23 608.27 571.74" stroke="#030202" stroke-width="4" stroke-linecap="round" stroke-linejoin="round" opacity="1" fill="none"></path><path d="M579.31 547.69C582.82 550.68 601.25 559.46 611.78 560.33" stroke="#030202" stroke-width="4" stroke-linecap="round" stroke-linejoin="round" opacity="1" fill="none"></path><path d="M667.34 556.82L688.67 571.74" stroke="#000000" stroke-width="4" stroke-linecap="round" stroke-linejoin="round" opacity="1" fill="none"></path><path d="M613.28 1012.89C613.01 1012.28 611.52 1007.1 610.47 1000.78 610.47 1000.69 610.47 1000.69 610.55 1000.69 614.33 1000.69 718.95 1000.69 721.5 1000.69 721.5 1000.69 721.59 1000.69 721.59 1000.78 723.43 1004.55 724.66 1008.68 724.57 1012.89 724.57 1012.98 724.57 1012.98 724.48 1012.98H613.45L613.28 1012.89Z" fill="#525252" opacity="1" stroke-width="4" stroke="none"></path></g><g><path d="M977.95 468.8L979.5 457.59C976.65 458.45 973.72 458.97 970.79 458.88 962.77 458.88 955.96 456.12 952.68 451.55 947.24 444.13 947.07 435.51 952.16 419.73 951.64 419.04 947.76 414.12 948.54 410.93 948.97 409.12 951.64 407.82 956.39 407.13L956.82 405.58C959.84 396.61 962.34 388.77 965.87 382.81 969.58 376.61 977.08 381.09 984.76 378.16 990.62 375.83 993.13 375.83 999.42 375.83 1011.5 375.83 1012.36 375.4 1020.38 382.47 1033.06 393.94 1031.16 407.39 1028.92 419.12L1029.95 423.26C1028.92 429.39 1034.69 444.39 1032.19 457.16 1031.76 459.48 1030.99 461.99 1030.56 464.05L1027.36 469.49 977.95 468.8Z" fill="#c65a42" opacity="1" stroke-width="4" stroke="none"></path><path d="M979.5 457.59L977.95 468.8 985.88 469.06C985.88 469.06 999.68 448.79 992.78 452.24 988.47 454.4 984.07 456.21 979.5 457.59Z" fill="#000000" opacity="0.3" stroke-width="4" stroke="none"></path><path d="M1026.59 457.5C1019.6 457.5 1006.58 456.12 998.73 447.07L998.39 446.72 998.73 446.55C999.34 446.29 1012.7 439.39 1015.03 430.25 1015.81 427.06 1015.12 423.78 1013.22 421.19 1011.32 418.52 1008.22 417.14 1003.91 417.14 996.4 417.14 987.87 421.28 987.78 421.36L987.61 421.54 987.43 421.36C982.6 415.76 986.31 407.65 988.21 404.29 988.38 404.03 988.12 403.77 987.87 403.86 985.45 404.55 982.95 404.89 980.28 405.07 977.69 405.07 976.14 404.38 975.53 403.08 974.58 401.01 976.05 397.39 980.1 392.22 980.36 391.96 980.1 391.44 979.76 391.53 978.9 391.61 978.03 391.61 977.08 391.61 973.2 391.61 970.27 390.58 968.37 388.59 966.91 387.13 965.96 385.06 965.87 382.99V382.81C969.58 376.52 975.27 371.69 982 369.27 987.78 366.95 993.99 365.82 1000.54 365.82 1012.53 365.82 1024.09 369.96 1032.19 377.12 1044.87 388.59 1040.73 410.41 1038.49 422.14L1038.4 422.74C1037.45 428.95 1034.87 443.96 1032.45 456.38L1032.28 457.16 1032.02 457.24C1030.38 457.5 1028.66 457.5 1026.59 457.5Z" fill="#ffffff" opacity="1" stroke-width="4" stroke="none"></path><path d="M809.52 575.83C806.84 575.83 804.95 575.05 803.82 573.58 802.1 571.25 802.62 567.98 802.88 567.2 799.34 566.86 796.84 565.73 795.37 563.66 794.08 561.6 793.65 559.18 794.25 556.77 787.87 552.63 790.46 545.55 790.8 544.61 790.2 543.83 785.89 537.27 790.03 532.36 794.08 527.53 811.67 524.25 814.69 523.73 812.79 522.35 804.08 515.89 803.82 510.8 803.74 509.42 804.43 508.12 805.46 507.35 806.24 506.74 807.62 506.4 809.6 506.4 817.8 506.4 835.99 512.01 854.79 520.28 859.11 522.18 863.59 524.25 868.33 526.58L868.85 527.7 850.65 572.72 844.19 572.98C842.12 570.82 840.65 569.36 839.18 568.06 837.72 568.67 821.42 574.96 810.81 575.83 810.38 575.74 809.95 575.83 809.52 575.83Z" fill="#c65a42" opacity="1" stroke-width="4" stroke="none"></path><path d="M958.03 429.99C961.47 430.51 965.27 428.52 967.17 427.06" stroke="#000000" stroke-width="4" stroke-linecap="round" stroke-linejoin="round" opacity="1" fill="none"></path><path d="M966.91 413.43C968.34 413.43 969.5 412.28 969.5 410.84 969.5 409.41 968.34 408.26 966.91 408.26 965.49 408.26 964.32 409.41 964.32 410.84 964.32 412.28 965.49 413.43 966.91 413.43Z" fill="#231f20" opacity="1" stroke-width="4" stroke="none"></path><path d="M991.92 434.99L1000.11 430.08" stroke="#000000" stroke-width="4" stroke-linecap="round" stroke-linejoin="round" opacity="1" fill="none"></path><path d="M979.5 457.59C981.74 456.9 985.8 455.69 987.87 454.48" stroke="#000000" stroke-width="4" stroke-linecap="round" stroke-linejoin="round" opacity="1" fill="none"></path><path d="M790.8 544.61L806.5 539.34" stroke="#000000" stroke-width="4" stroke-linecap="round" stroke-linejoin="round" opacity="1" fill="none"></path><path d="M794.25 556.77L811.15 550.64" stroke="#000000" stroke-width="4" stroke-linecap="round" stroke-linejoin="round" opacity="1" fill="none"></path><path d="M802.88 567.2L815.73 563.49" stroke="#000000" stroke-width="4" stroke-linecap="round" stroke-linejoin="round" opacity="1" fill="none"></path><path d="M814.69 523.73L826.33 522.1" stroke="#000000" stroke-width="4" stroke-linecap="round" stroke-linejoin="round" opacity="1" fill="none"></path><path d="M1127.32 907.34L1126.54 907.17C1116.28 888.71 1102.22 869.05 1088.6 849.9 1079.37 836.88 1070.66 824.63 1063.59 813.42 1055.05 799.88 1047.29 785.83 1040.21 771.42V771.34L1041.68 768.58 1122.06 766.85 1127.75 771.6C1128.7 773.23 1129.3 774.44 1130.34 776.08 1136.2 785.91 1142.93 794.19 1149.57 802.13 1153.11 806.35 1156.47 810.4 1159.49 814.54 1166.21 823.6 1171.73 831.19 1176.91 839.47 1184.33 851.46 1191.05 863.7 1196.92 876.47L1196.83 876.72 1185.96 943.22 1127.32 907.34Z" fill="#ffc930" opacity="1" stroke-width="4" stroke="none"></path><path d="M1041.68 768.58L1040.21 771.34V771.42C1045.56 782.2 1051.17 792.81 1057.03 802.73L1098.69 767.89 1041.68 768.58Z" fill="#000000" opacity="0.3" stroke-width="4" stroke="none"></path><path d="M1122.4 998.15C1122.92 995.05 1123.96 992.12 1125.42 989.36 1126.03 988.24 1126.72 986.94 1127.41 985.48 1130.94 978.84 1136.29 968.75 1139.39 960.81 1144.05 948.82 1139.91 931.32 1126.54 907.17L1141.98 900.27C1147.67 897.77 1154.31 899.32 1158.37 904.06L1175.96 924.5C1176.56 925.19 1177.77 924.68 1177.68 923.73L1174.67 897.08C1173.98 890.87 1177.34 884.92 1183.12 882.5L1196.92 876.47C1196.92 876.47 1197.69 878.02 1197.78 878.36 1208.65 902.94 1217.1 928.73 1222.79 954.95L1222.44 955.46 1221.5 958.57 1122.92 1001.78 1122.4 998.15Z" fill="#3c2c5b" opacity="1" stroke-width="4" stroke="none"></path><path d="M972.26 918.21C969.24 896.73 965.36 871.12 962.34 850.94 959.84 834.03 957.59 818.34 956.39 809.8 954.66 797.47 953.37 784.79 952.42 771.6L952.94 769.35 1033.49 766.77V766.94C1031.76 775.56 1031.76 788.93 1032.54 797.73 1034 814.63 1037.37 829.03 1040.65 843L1040.99 844.56C1043.58 855.51 1045.65 864.74 1047.11 874.31 1049.36 888.88 1050.48 903.46 1050.74 918.12L1050.56 918.29 1011.75 978.49 972.26 918.21Z" fill="#ffc930" opacity="1" stroke-width="4" stroke="none"></path><path d="M1033.4 806.01C1033.06 803.33 1032.8 800.66 1032.54 797.9 1031.76 789.1 1031.76 775.73 1033.49 767.11V766.94L959.15 768.75 1033.4 806.01Z" fill="#000000" opacity="0.3" stroke-width="4" stroke="none"></path><path d="M933.88 998.93C935.69 996.08 937.93 993.76 940.52 991.69 941.64 990.74 943.02 989.62 944.66 988.41 950.69 983.58 959.06 977.02 964.67 970.99 975.45 959.43 974.84 936.23 972.34 918.72L972.26 918.21H986.83C994.07 918.21 1000.46 922.86 1002.7 929.68L1010.37 953.14C1010.46 953.57 1011.06 953.48 1011.15 953.14L1017.53 930.37C1019.6 923.12 1026.16 918.21 1033.66 918.12H1050.74V918.29C1050.99 945.37 1048.49 972.45 1043.32 999.02L1042.8 999.53 1040.3 1001.6C1040.21 1001.69 1040.13 1001.69 1040.04 1001.69L935.17 1002.55C935 1002.55 934.83 1002.47 934.74 1002.21L933.88 998.93Z" fill="#3c2c5b" opacity="1" stroke-width="4" stroke="none"></path><path d="M972.08 956.67L987.61 961.93" stroke="#000000" stroke-width="4" stroke-linecap="round" stroke-linejoin="round" opacity="1" fill="none"></path><path d="M967.17 968.06L980.71 977.46" stroke="#000000" stroke-width="4" stroke-linecap="round" stroke-linejoin="round" opacity="1" fill="none"></path><path d="M1140.43 940.72L1156.64 935.2" stroke="#000000" stroke-width="4" stroke-linecap="round" stroke-linejoin="round" opacity="1" fill="none"></path><path d="M1141.38 952.88H1156.64" stroke="#000000" stroke-width="4" stroke-linecap="round" stroke-linejoin="round" opacity="1" fill="none"></path><path d="M929.91 1012.9V1012.73C929.82 1007.81 931.2 1002.98 933.88 998.93L1043.32 999.02C1042.11 1004.71 1040.9 1009.88 1039.96 1012.73L929.91 1012.9Z" fill="#ff4f32" opacity="1" stroke-width="4" stroke="none"></path><path d="M952.42 771.34C947.33 698.38 955.78 633.26 960.35 614.81L951.3 571.69C948.8 575.48 926.72 608.51 902.23 608.51 878.16 608.51 860.31 589.8 847.29 576.17 846.26 575.14 845.31 574.01 844.27 573.07L844.19 572.98 868.33 526.58 868.51 526.67C882.91 533.83 894.64 540.81 896.1 541.76 897.4 539.17 913.27 508.3 929.65 490.96 939.83 480.27 956.13 474.23 975.53 474.15 975.88 474.15 976.14 474.15 976.31 474.15L978.64 463.97 1030.64 464.05C1030.64 464.05 1030.3 473.02 1030.04 474.49 1031.93 474.75 1048.49 477.59 1059.79 490.1 1062.98 493.46 1071.18 503.64 1079.2 524.08 1086.79 543.23 1092.48 562.54 1094.72 577.12 1099.03 604.72 1083.59 628.69 1066.17 638.18 1080.92 659.65 1091.53 687.94 1101.96 717.61 1108.6 736.49 1114.81 749.43 1127.58 771.25L1127.75 771.6H952.42V771.34Z" fill="#ff4f32" opacity="1" stroke-width="4" stroke="none"></path><path d="M955.52 644.39H985.97V668.88C985.97 681.3 975.88 691.39 963.46 691.39L951.64 691.22" stroke="#000000" stroke-width="4" stroke-linecap="round" stroke-linejoin="round" opacity="1" fill="none"></path><path d="M960.53 614.89L1042.11 614.81 1055.74 551.42" stroke="#000000" stroke-width="4" stroke-linecap="round" stroke-linejoin="round" opacity="1" fill="none"></path><path d="M1048.23 586.26L1062.64 590.23" stroke="#000000" stroke-width="4" stroke-linecap="round" stroke-linejoin="round" opacity="1" fill="none"></path><path d="M951.38 571.25C964.32 552.28 970.36 542.79 970.36 542.79" stroke="#000000" stroke-width="4" stroke-linecap="round" stroke-linejoin="round" opacity="1" fill="none"></path><path d="M951.3 571.69L961.99 555.47C962.85 554.01 963.54 552.88 965.18 552.88 966.48 552.88 967.77 553.4 968.72 554.35 969.67 555.3 970.1 556.51 970.1 557.8 969.93 575.14 958.2 602.13 958.03 602.47L957.85 602.91 951.3 571.69Z" fill="#000000" opacity="0.3" stroke-width="4" stroke="none"></path><path d="M1065.91 638.01C1058.33 628.17 1048.32 617.91 1042.11 614.81" stroke="#000000" stroke-width="4" stroke-linecap="round" stroke-linejoin="round" opacity="1" fill="none"></path><path d="M1042.11 614.81L1052.81 565.04C1061.43 568.67 1062.64 584.19 1063.5 595.4 1064.36 606.61 1068.24 617.74 1079.02 627.83L1079.11 627.92 1079.02 628C1075.23 632.06 1071.09 635.5 1066.17 638.18 1066.17 638.18 1052.81 622.31 1042.11 614.81Z" fill="#000000" opacity="0.3" stroke-width="4" stroke="none"></path><path d="M1124.21 1012.82C1122.14 1008.24 1121.45 1003.16 1122.4 998.15L1222.79 954.95C1223.82 959.78 1224.6 964.52 1225.12 969.35V969.44L1124.21 1012.82Z" fill="#ff4f32" opacity="1" stroke-width="4" stroke="none"></path><path d="M976.31 474.15L987.61 474.23" stroke="#000000" stroke-width="4" stroke-linecap="round" stroke-linejoin="round" opacity="1" fill="none"></path><path d="M896.1 541.76L901.36 563.49" stroke="#000000" stroke-width="4" stroke-linecap="round" stroke-linejoin="round" opacity="1" fill="none"></path></g></svg>