<svg xmlns="http://www.w3.org/2000/svg" height="1200" width="1600" version="1.1" xmlns:xlink="http://www.w3.org/1999/xlink" xmlns:svgjs="http://svgjs.com/svgjs"><rect fill="#f3ebe9" width="1600" height="1200"></rect><g><path d="M680.8 282.32V281.87C680.8 281.72 680.8 281.57 680.8 281.34 680.8 277.35 681.33 273.36 682.46 269.44 687.73 251.13 704.69 238.4 723.67 238.4 727.66 238.4 731.58 238.93 735.42 240.06 742.51 229.73 753.05 222.13 765.11 218.66 769.93 217.3 774.9 216.55 779.95 216.55 803.76 216.55 825 232.52 831.63 255.43 836 253.01 840.97 251.81 846.02 251.81 862.82 251.81 876.38 265.45 876.38 282.17V282.32H680.8Z" fill="#ffffff" opacity="1" stroke-width="4" stroke="none"></path><path d="M1072.94 183.93V183.55C1072.94 183.4 1072.94 183.25 1072.94 183.1 1072.94 173.76 1076.56 165.02 1083.19 158.46 1089.74 151.91 1098.56 148.22 1107.82 148.22 1111.06 148.22 1114.3 148.67 1117.39 149.57 1125.53 137.67 1139.09 130.51 1153.56 130.51 1162.37 130.51 1170.81 133.15 1178.12 138.12 1193.03 148.29 1200.19 166.22 1196.2 183.85V184L1072.94 183.93Z" fill="#ffffff" opacity="1" stroke-width="4" stroke="none"></path><path d="M1211.11 183.93V183.78C1211.11 170.14 1222.19 159.07 1235.83 159.07 1249.46 159.07 1260.54 170.14 1260.54 183.78V183.93H1211.11Z" fill="#ffffff" opacity="1" stroke-width="4" stroke="none"></path><path d="M413.05 212.56V212.41C409.43 196.44 415.91 180.09 429.47 170.9 436.1 166.38 443.79 164.04 451.77 164.04 464.88 164.04 477.16 170.52 484.55 181.29 487.33 180.46 490.27 180.09 493.21 180.09 510.69 180.09 524.85 194.33 524.85 211.73 524.85 211.88 524.85 211.96 524.85 212.11V212.48H413.05V212.56Z" fill="#ffffff" opacity="1" stroke-width="4" stroke="none"></path></g><g><path d="M241.2 497.8H205.8V735.5H241.2V497.8Z" fill="#231f20" opacity="1" stroke-width="4" stroke="none"></path><path d="M222 539.2C216.7 539.2 211.3 538.8 206 538H205.8V497.8H241.2V537.5H241C234.8 538.6 228.4 539.2 222 539.2Z" fill="#000000" opacity="0.2" stroke-width="4" stroke="none"></path><path d="M222 523.2C161.2 523.2 111.8 473.8 111.8 413 111.8 355.6 126.2 290.5 151.4 234.2 174.3 182.9 202 149.8 222 149.8 242 149.8 269.6 182.9 292.6 234.2 317.8 290.5 332.2 355.7 332.2 413 332.2 473.8 282.8 523.2 222 523.2Z" fill="#3c2c5b" opacity="1" stroke-width="4" stroke="none"></path><path d="M206 522.8C217.6 524.5 229.4 524.3 241 522.3" stroke="#000000" stroke-width="4" stroke-linecap="round" stroke-linejoin="round" opacity="1" fill="none"></path><path d="M209.2 397.9C218 385.4 236.8 382.9 236.8 382.9 236.8 382.9 240.7 401.4 231.9 413.9 223.1 426.4 204.3 428.9 204.3 428.9 204.3 428.9 200.4 410.4 209.2 397.9Z" fill="#ffa0dc" opacity="1" stroke-width="4" stroke="none"></path><path d="M236.2 383.7C236.4 383.4 236.9 383.5 237 383.9L237.8 388.2C237.8 388.4 240.7 401.4 231.9 413.9 224.1 425 208.5 428.2 205 428.8 204.7 428.8 204.6 428.6 204.7 428.3L236.2 383.7Z" fill="#d07fb2" opacity="1" stroke-width="4" stroke="none"></path><path d="M172.4 363.1C164.5 350 169.8 331.8 169.8 331.8 169.8 331.8 188.3 335.7 196.2 348.8 204.1 361.9 198.8 380.1 198.8 380.1 198.8 380.1 180.3 376.2 172.4 363.1Z" fill="#ffa0dc" opacity="1" stroke-width="4" stroke="none"></path><path d="M170.3 332.7C170.1 332.4 170.4 332 170.8 332.1L175.1 333.1C175.3 333.2 188.4 335.8 196.3 348.9 203.3 360.5 200 376.1 199.1 379.5 199 379.8 198.7 379.8 198.6 379.6L170.3 332.7Z" fill="#d07fb2" opacity="1" stroke-width="4" stroke="none"></path><path d="M221.6 265.8C226.1 251.2 243.2 242.9 243.2 242.9 243.2 242.9 252.7 259.3 248.2 273.9 243.7 288.5 226.6 296.8 226.6 296.8 226.6 296.8 217.1 280.4 221.6 265.8Z" fill="#ffa0dc" opacity="1" stroke-width="4" stroke="none"></path><path d="M242.8 243.9C242.9 243.5 243.4 243.5 243.6 243.8L245.7 247.6C245.8 247.8 252.6 259.3 248.1 273.9 244.1 286.9 230.3 294.8 227.2 296.4 227 296.5 226.7 296.3 226.8 296.1L242.8 243.9Z" fill="#d07fb2" opacity="1" stroke-width="4" stroke="none"></path></g><g><path d="M1371.22 852.51L1358.77 820.9C1358.77 820.81 1358.77 820.81 1358.77 820.71 1362.77 811.72 1362.77 798.27 1358.5 775.11 1358.5 775.02 1358.5 775.02 1358.5 774.93 1359.86 772.65 1391.02 725.32 1393.84 720.87 1393.93 720.69 1394.11 720.69 1394.29 720.87 1397.29 725.23 1430 773.02 1431.27 774.93 1431.27 774.93 1431.27 775.02 1431.27 775.11 1431.18 804.45 1427.45 832.71 1424.27 851.79 1424.27 851.88 1424.18 852.24 1424.09 852.24 1420.73 852.6 1371.31 852.33 1371.22 852.51Z" fill="#8c5426" opacity="1" stroke-width="4" stroke="none"></path><path d="M1242.21 854.16C1241.39 841.53 1236.94 822.72 1236.76 821.18 1236.76 821.09 1236.76 821.09 1236.76 821 1242.3 811 1242.66 796.19 1241.39 775.21 1241.39 775.12 1241.48 774.93 1241.57 774.93 1244.57 774.12 1280.82 767.76 1282.36 767.48H1282.46C1283.73 767.85 1311.8 774.93 1311.8 774.93 1311.07 806.1 1305.71 836.62 1302.44 852.07 1302.44 852.16 1302.35 852.25 1302.26 852.25 1297.81 852.88 1244.93 853.88 1244.84 854.16L1242.48 854.34C1242.3 854.34 1242.21 854.25 1242.21 854.16Z" fill="#8c5426" opacity="1" stroke-width="4" stroke="none"></path><path d="M1156.63 384.36C1156.63 384.27 1156.54 384.18 1156.45 384.18 1154.81 383.72 1146.81 380.18 1137.64 356.37V356.28C1125.37 340.93 1116.74 329.76 1118.65 327.03 1118.65 327.03 1118.65 326.94 1118.74 326.94 1122.56 323.4 1129.92 329.66 1135.64 335.66 1135.82 335.84 1136 335.66 1135.91 335.48 1131.73 327.58 1123.38 318.94 1126.1 312.04 1126.56 310.86 1127.37 309.95 1128.74 309.4 1128.83 309.4 1128.92 309.22 1128.92 309.13 1128.19 303.68 1132.46 301.23 1137.09 303.14 1137.18 303.14 1137.28 303.14 1137.37 303.14 1149.27 295.41 1164.62 325.49 1174.07 333.39 1174.25 333.48 1174.43 333.39 1174.52 333.21 1176.34 321.67 1177.89 311.68 1182.7 312.04 1184.61 312.04 1185.34 316.04 1186.34 321.49 1187.15 326.21 1188.24 332.03 1190.33 336.57 1194.42 345.29 1196.51 354.92 1196.42 364.37V364.46C1200.24 371.82 1204.14 378.45 1207.41 385.36 1207.5 385.45 1207.41 385.63 1207.32 385.72 1205.6 386.63 1193.88 392.44 1182.79 397.71 1173.25 402.16 1163.99 405.34 1162.35 405.89 1162.17 405.98 1162.08 405.89 1161.99 405.71 1161.26 403.71 1157.9 390.81 1156.63 384.36Z" fill="#8c5426" opacity="1" stroke-width="4" stroke="none"></path><path d="M1174.25 333.57L1173.16 340.57C1173.16 340.57 1167.44 352.01 1170.53 364.73" stroke="#000000" stroke-width="4" stroke-linecap="round" stroke-linejoin="round" opacity="1" fill="none"></path><path d="M1137.18 303.05C1148.09 314.58 1158.17 329.66 1158.17 329.66" stroke="#000000" stroke-width="4" stroke-linecap="round" stroke-linejoin="round" opacity="1" fill="none"></path><path d="M1129.01 309.31C1133.73 314.04 1149.36 335.75 1149.36 335.75" stroke="#000000" stroke-width="4" stroke-linecap="round" stroke-linejoin="round" opacity="1" fill="none"></path><path d="M1135.82 335.66L1141.18 342.57" stroke="#000000" stroke-width="4" stroke-linecap="round" stroke-linejoin="round" opacity="1" fill="none"></path><path d="M1307.35 346.12L1307.44 338.49C1307.44 338.3 1307.26 338.21 1307.08 338.21 1297.72 340.85 1285.54 337.67 1281.09 329.76 1273.82 317.41 1282.27 305.05 1282.36 291.43 1283.09 283.43 1284.09 273.8 1287.27 266.99 1287.82 265.71 1288.45 264.62 1289.18 263.63 1289.27 263.53 1289.27 263.53 1289.36 263.53 1299.44 263.63 1307.71 261.99 1324.16 261.99 1325.43 261.99 1329.52 268.44 1330.79 268.53 1349.69 269.53 1344.14 268.53 1363.77 282.16 1363.86 282.25 1363.86 282.25 1363.86 282.34 1363.59 291.61 1361.95 315.77 1360.77 334.58 1360.5 338.58 1360.31 342.48 1360.13 345.75V345.85C1360.13 347.3 1307.17 345.66 1307.35 346.12Z" fill="#8c5426" opacity="1" stroke-width="4" stroke="none"></path><path d="M1337.78 322.58C1337.69 322.49 1337.78 322.31 1337.87 322.21 1339.78 321.03 1355.86 310.77 1352.68 301.41 1350.14 292.32 1335.88 295.5 1331.33 297.32 1331.15 297.41 1330.97 297.32 1330.97 297.14 1329.79 291.05 1330.79 286.51 1332.79 281.79 1332.88 281.6 1332.7 281.42 1332.51 281.42 1320.25 283.33 1310.26 277.43 1316.89 266.52 1316.98 266.34 1316.8 266.07 1316.62 266.16 1307.26 269.43 1291.99 271.61 1287.45 266.98 1287.36 266.89 1287.36 266.8 1287.36 266.7 1291.09 243.81 1362.04 231.73 1364.04 281.88 1363.86 295.6 1362.86 316.31 1360.86 334.12 1360.86 334.21 1360.77 334.39 1360.59 334.39 1343.96 334.48 1338.51 324.21 1337.78 322.58Z" fill="#010005" opacity="1" stroke-width="4" stroke="none"></path><path d="M1307.44 338.12C1313.89 336.22 1320.07 333.76 1324.25 331.04" stroke="#000000" stroke-width="4" stroke-linecap="round" stroke-linejoin="round" opacity="1" fill="none"></path><path d="M1333.24 310.68L1340.05 307.95" stroke="#000000" stroke-width="4" stroke-linecap="round" stroke-linejoin="round" opacity="1" fill="none"></path><path d="M1298.35 299.87L1297.81 301.77C1297.45 302.86 1297.81 304.04 1298.63 304.77L1298.81 304.95" stroke="#000000" stroke-width="4" stroke-linecap="round" stroke-linejoin="round" opacity="1" fill="none"></path><path d="M1296.45 313.32C1297.63 314.23 1301.72 314.32 1303.99 311.5" stroke="#000000" stroke-width="4" stroke-linecap="round" stroke-linejoin="round" opacity="1" fill="none"></path><path d="M1309.89 298.5C1311.15 298.5 1312.16 297.49 1312.16 296.23 1312.16 294.98 1311.15 293.96 1309.89 293.96 1308.64 293.96 1307.62 294.98 1307.62 296.23 1307.62 297.49 1308.64 298.5 1309.89 298.5Z" fill="#010005" opacity="1" stroke-width="4" stroke="none"></path><path d="M1290.9 295.69C1292.16 295.69 1293.18 294.67 1293.18 293.42 1293.18 292.16 1292.16 291.14 1290.9 291.14 1289.65 291.14 1288.63 292.16 1288.63 293.42 1288.63 294.67 1289.65 295.69 1290.9 295.69Z" fill="#010005" opacity="1" stroke-width="4" stroke="none"></path><path d="M1203.42 852.33C1205.78 847.33 1211.41 842.97 1218.68 838.07 1222.4 835.16 1226.58 831.89 1231.4 827.8 1233.58 825.98 1235.21 823.8 1236.58 821.35 1236.67 821.26 1236.85 821.17 1236.94 821.26 1248.39 827.71 1256.2 835.8 1256.74 854.33 1256.74 854.97 1208.5 852.88 1203.6 852.78 1203.42 852.69 1203.32 852.51 1203.42 852.33Z" fill="#231f20" opacity="1" stroke-width="4" stroke="none"></path><path d="M1431.27 766.03C1430.91 742.68 1424.73 714.61 1418.64 694.53 1415.1 681.99 1412.1 671.18 1410.92 660.1 1405.47 595.59 1430.45 538.99 1387.84 474.13 1387.75 474.04 1387.75 474.04 1387.66 474.04H1316.98C1316.98 474.04 1316.98 474.04 1316.98 474.13 1305.26 474.13 1295.9 474.22 1294.72 474.22 1294.63 474.22 1294.54 474.31 1294.54 474.31 1275.46 507.65 1225.76 624.12 1239.12 738.32 1239.85 751.13 1240.85 762.58 1241.57 774.75 1241.57 774.93 1241.66 775.03 1241.84 775.03 1246.21 774.93 1307.44 775.21 1311.8 774.93 1311.98 774.93 1312.07 774.84 1312.07 774.66 1312.07 769.57 1312.25 766.39 1312.07 761.4 1311.53 743.59 1310.35 729.33 1308.35 715.15 1301.62 679.54 1311.89 654.92 1330.45 616.2 1330.79 615.31 1330.79 615.4 1330.94 616.54 1335.78 658.83 1342.05 701.62 1350.78 737.69 1353.41 749.77 1356.59 764.03 1358.68 774.75 1358.68 774.84 1358.77 774.93 1358.95 774.93H1431.36C1431.54 774.93 1431.63 774.84 1431.63 774.66 1431.36 771.75 1431.36 768.76 1431.27 766.03Z" fill="#61ccff" opacity="1" stroke-width="4" stroke="none"></path><path d="M1312.8 605.94C1312.44 627.75 1313.71 646.73 1314.07 651.46 1314.07 651.73 1314.43 651.82 1314.53 651.55 1319.16 639.38 1325.13 627.21 1330.49 615.98 1330.42 615.21 1330.42 615.12 1330.36 613.47 1327.7 591.13 1325.34 567.33 1323.16 543.98 1323.16 543.71 1322.79 543.62 1322.7 543.8 1311.98 557.88 1313.16 585.68 1312.8 605.94Z" fill="#003852" opacity="0.2" stroke-width="4" stroke="none"></path><path d="M1370.04 473.75C1389.57 527.81 1381.57 610.58 1387.84 665.36 1394.11 720.51 1404.65 728.68 1408.1 774.29" stroke="#003852" stroke-width="4" stroke-linecap="round" stroke-linejoin="round" opacity="1" fill="none"></path><path d="M1304.53 474.39L1336.51 474.03C1337.24 474.12 1384.94 473.85 1387.66 474.12 1387.75 474.12 1387.84 474.12 1387.84 474.21 1400.38 491.29 1407.19 516 1408.1 519.45 1408.19 519.63 1408.01 519.82 1407.83 519.82 1402.02 518.63 1332.97 504.1 1304.35 474.94 1304.17 474.66 1304.26 474.39 1304.53 474.39Z" fill="#003852" opacity="0.2" stroke-width="4" stroke="none"></path><path d="M1326.06 852.33C1325.88 852.33 1325.79 852.06 1325.88 851.97 1331.7 843.43 1344.14 836.25 1353.41 827.71 1355.68 825.8 1357.32 823.62 1358.59 820.99 1358.68 820.9 1358.77 820.81 1358.95 820.9 1370.94 827.16 1378.94 838.52 1379.58 854.15 1379.58 854.69 1331.33 852.69 1326.06 852.33Z" fill="#231f20" opacity="1" stroke-width="4" stroke="none"></path><path d="M1323.07 542.8C1325.06 563.88 1327.43 588.68 1330.82 615.75" stroke="#003852" stroke-width="4" stroke-linecap="round" stroke-linejoin="round" opacity="1" fill="none"></path><path d="M1406.1 380.54C1388.93 356.37 1362.77 353.56 1359.95 353.29 1359.77 353.29 1359.68 353.2 1359.68 353.01 1359.77 351.47 1360.04 347.11 1360.13 346.02 1360.13 345.84 1360.04 345.75 1359.86 345.75H1307.62C1307.44 345.75 1307.35 345.84 1307.35 346.02L1307.26 354.38C1307.26 354.56 1307.17 354.65 1306.99 354.65 1306.71 354.65 1306.26 354.56 1305.62 354.56 1269.28 354.65 1247.84 389.63 1224.31 418.7 1224.22 418.88 1223.95 418.79 1223.86 418.7 1222.4 415.7 1215.95 402.62 1207.41 385.81 1207.32 385.72 1207.23 385.63 1207.14 385.72 1203.87 386.81 1164.89 404.44 1162.08 405.98 1161.99 406.07 1161.9 406.16 1161.99 406.25 1182.97 505.55 1236.76 495.83 1283.27 433.14 1283.36 432.96 1283.64 433.05 1283.73 433.23 1284.91 437.87 1293.63 471.57 1294.36 474.39 1294.36 474.48 1294.45 474.57 1294.63 474.57H1352.59C1352.77 474.57 1352.86 474.66 1352.86 474.84L1351.77 491.47C1351.77 491.56 1351.87 491.74 1351.96 491.74 1366.86 495.01 1380.39 496.83 1391.93 496.74 1482.15 498.19 1416.28 392.53 1406.1 380.54Z" fill="#3c2c5b" opacity="1" stroke-width="4" stroke="none"></path><path d="M1278.82 412.26C1279 412.17 1279.09 412.26 1279.18 412.44 1279.73 414.98 1283.91 432.7 1283.55 432.7 1276.37 442.42 1268.56 450.69 1266.01 453.32 1265.83 453.5 1265.47 453.32 1265.56 453.05 1274.28 430.25 1273.46 414.35 1278.82 412.26Z" fill="#000000" opacity="0.2" stroke-width="4" stroke="none"></path><path d="M1286.63 515.92C1281.73 514.92 1285.82 506.29 1290.45 499.2 1290.63 498.93 1290.36 498.66 1290.09 498.84 1283.82 503.11 1276 509.2 1269.74 509.2 1267.28 509.29 1265.56 508.01 1263.83 506.47 1263.83 506.47 1263.74 506.38 1263.65 506.38 1259.02 506.29 1258.02 502.84 1259.02 498.66 1259.02 498.57 1259.02 498.57 1259.02 498.47 1255.75 490.39 1266.47 479.76 1275.55 471.4 1283.45 464.59 1291.81 459.05 1297.81 456.87 1312.89 451.23 1338.15 449.69 1354.59 449.6 1354.77 449.6 1354.86 449.69 1354.86 449.87 1355.05 454.05 1352.96 488.39 1351.87 491.3 1351.87 491.39 1351.68 491.48 1351.59 491.48 1346.87 490.48 1340.87 488.94 1335.51 487.48 1335.42 487.48 1335.33 487.48 1335.33 487.48 1333.97 488.48 1323.25 492.57 1308.17 495.84 1308.08 495.84 1308.08 495.93 1307.98 495.93 1298.9 508.01 1289.36 515.83 1286.63 515.92Z" fill="#8c5426" opacity="1" stroke-width="4" stroke="none"></path><path d="M1307.62 338.03C1308.89 337.67 1317.34 334.94 1324.34 330.95 1324.61 330.76 1324.88 331.13 1324.7 331.31L1307.8 351.11C1307.62 351.3 1307.35 351.21 1307.35 350.93L1307.53 338.21C1307.44 338.21 1307.53 338.12 1307.62 338.03Z" fill="#000000" opacity="0.2" stroke-width="4" stroke="none"></path><path d="M1325.61 852.42C1325.7 852.33 1325.7 852.33 1325.79 852.33L1424.09 851.88C1424.27 851.88 1424.36 852.06 1424.36 852.15 1423.18 858.6 1422.37 862.69 1421.91 864.96 1421.91 865.05 1421.82 865.14 1421.64 865.14 1416.82 865.14 1327.88 865.32 1322.52 865.32 1322.34 865.32 1322.25 865.23 1322.25 865.05 1322.25 863.69 1322.34 855.96 1325.61 852.42Z" fill="#000000" opacity="1" stroke-width="4" stroke="none"></path><path d="M1203.32 852.69L1302.08 852.24C1302.26 852.24 1302.35 852.42 1302.35 852.51 1301.08 859.14 1299.9 863.78 1299.63 864.87 1299.63 864.96 1299.54 865.05 1299.35 865.05 1294.18 865.05 1205.96 865.32 1200.24 865.32 1200.05 865.32 1199.96 865.23 1199.96 865.05 1199.87 863.69 1199.78 856.6 1203.05 852.69 1203.23 852.69 1203.32 852.69 1203.32 852.69Z" fill="#000000" opacity="1" stroke-width="4" stroke="none"></path><path d="M1363.86 449.68L1380.3 449.86C1380.48 449.86 1380.57 449.68 1380.57 449.5L1367.67 416.7C1367.67 416.61 1367.49 416.52 1367.4 416.52 1357.77 416.79 1371.76 437.6 1363.59 449.32 1363.59 449.41 1363.68 449.68 1363.86 449.68Z" fill="#000000" opacity="0.2" stroke-width="4" stroke="none"></path><path d="M1224.31 418.71L1230.76 410.53" stroke="#000000" stroke-width="4" stroke-linecap="round" stroke-linejoin="round" opacity="1" fill="none"></path><path d="M1283.64 432.96L1279.18 412.43" stroke="#000000" stroke-width="4" stroke-linecap="round" stroke-linejoin="round" opacity="1" fill="none"></path><path d="M1360.13 353.3C1368.04 354.39 1366.4 354.57 1371.94 355.84" stroke="#000000" stroke-width="4" stroke-linecap="round" stroke-linejoin="round" opacity="1" fill="none"></path><path d="M1367.76 416.7L1380.76 449.86" stroke="#000000" stroke-width="4" stroke-linecap="round" stroke-linejoin="round" opacity="1" fill="none"></path><path d="M1354.77 449.68C1363.59 449.68 1378.76 449.86 1389.57 450.5" stroke="#000000" stroke-width="4" stroke-linecap="round" stroke-linejoin="round" opacity="1" fill="none"></path><path d="M1259.02 498.57C1264.47 492.48 1276.91 481.03 1285.73 474.94" stroke="#000000" stroke-width="4" stroke-linecap="round" stroke-linejoin="round" opacity="1" fill="none"></path><path d="M1264.01 506.2C1268.1 502.11 1281.64 490.57 1292.54 483.12" stroke="#000000" stroke-width="4" stroke-linecap="round" stroke-linejoin="round" opacity="1" fill="none"></path><path d="M1291.18 498.1L1299.35 491.2" stroke="#000000" stroke-width="4" stroke-linecap="round" stroke-linejoin="round" opacity="1" fill="none"></path></g><g><path d="M628.1 680.3H261.7V875.7H628.1V680.3Z" fill="#595959" opacity="1" stroke-width="4" stroke="none"></path><path d="M1284.1 680.3H917.7V875.7H1284.1V680.3Z" fill="#595959" opacity="1" stroke-width="4" stroke="none"></path><path d="M775.9 381.5C777.1 378.9 779.2 376.8 781.9 375.5 783.5 374.7 785.3 374.3 787.1 374.3 791.9 374.3 796.2 377.1 798.1 380.5L823.1 434 750.1 436.6 775.9 381.5Z" fill="#ffa0dc" opacity="1" stroke-width="4" stroke="none"></path><path d="M752.6 431.4L756.9 422.3H757C775.7 422.1 793.8 416.4 809.2 405.7L809.7 405.5 821.9 431.5 752.6 431.4Z" fill="#53153c" opacity="0.2" stroke-width="4" stroke="none"></path><path d="M1433.9 803.4C1411.8 803.4 1393.9 785.4 1393.9 763.4 1393.9 741.3 1411.9 723.4 1433.9 723.4 1455.9 723.4 1473.9 741.4 1473.9 763.4 1473.9 785.4 1456 803.4 1433.9 803.4Z" fill="#ffa0dc" opacity="1" stroke-width="4" stroke="none"></path><path d="M166.9 753.4C144.8 753.4 126.9 735.4 126.9 713.4 126.9 691.3 144.9 673.4 166.9 673.4 188.9 673.4 206.9 691.4 206.9 713.4 206.9 735.4 189 753.4 166.9 753.4Z" fill="#ffa0dc" opacity="1" stroke-width="4" stroke="none"></path><path d="M152.3 875.7C138.1 875.7 126.5 864.1 126.5 849.9V843.2C126.5 828.9 138.1 817.2 152.5 817.2H243.9C256 817.2 267 824.8 271.3 836.2H311.2C311.2 836.2 310.1 848.1 310.1 853.9V875.6L152.3 875.7Z" fill="#ff4f32" opacity="1" stroke-width="4" stroke="none"></path><path d="M1231.7 875.7V854C1231.7 848.2 1231.4 842.3 1230.7 836.5V836.2L1257.6 836.3C1260.6 825.1 1270.8 817.3 1282.4 817.3H1448.2C1462.4 817.3 1474 828.9 1474 843.1V849.9C1474 864.1 1462.4 875.7 1448.2 875.7H1231.7Z" fill="#ff4f32" opacity="1" stroke-width="4" stroke="none"></path><path d="M1230.8 837.5C1227.1 805.5 1212.5 775.4 1189.8 752.6 1167.1 729.8 1136.9 715.3 1104.9 711.6 1099.4 711 1093.8 710.6 1088.2 710.6 1015.5 710.6 954.5 765.1 946.1 837.4L595.8 837.6V837.4C592.1 805.6 577.7 775.6 555.1 752.9 532.6 730.2 502.7 715.5 470.9 711.6 465 710.9 459.1 710.5 453.2 710.5 381 710.5 320 764.6 311.1 836.3L166.7 836.5V658.9C166.7 619.3 198.9 587.1 238.5 587.1H301.8L446.2 462.2C469.1 442.4 498.5 431.4 528.8 431.4H860.5C888.4 431.4 914.7 442.2 934.6 461.7L1061.9 587 1327.2 618.2C1350.9 621.1 1369.8 638.8 1374.1 662.3L1398.8 683.9C1422.2 687.5 1439.1 707.3 1439.1 731V837.7L1230.8 837.5Z" fill="#ffc930" opacity="1" stroke-width="4" stroke="none"></path><path d="M1439.1 803.1L1438.9 731.1C1438.9 728.5 1438.9 725.8 1438.5 723.4" stroke="#1b1b1b" stroke-width="4" stroke-linecap="round" stroke-linejoin="round" opacity="1" fill="none"></path><path d="M1165.96 931.56C1208.8 888.72 1208.8 819.26 1165.96 776.42 1123.12 733.58 1053.66 733.58 1010.82 776.42 967.98 819.26 967.98 888.72 1010.82 931.56 1053.66 974.4 1123.12 974.4 1165.96 931.56Z" fill="#231f20" opacity="1" stroke-width="4" stroke="none"></path><path d="M1088.4 886.5C1106.35 886.5 1120.9 871.95 1120.9 854 1120.9 836.05 1106.35 821.5 1088.4 821.5 1070.45 821.5 1055.9 836.05 1055.9 854 1055.9 871.95 1070.45 886.5 1088.4 886.5Z" fill="#595959" opacity="1" stroke-width="4" stroke="none"></path><path d="M453.4 963.7C513.98 963.7 563.1 914.59 563.1 854 563.1 793.41 513.98 744.3 453.4 744.3 392.81 744.3 343.7 793.41 343.7 854 343.7 914.59 392.81 963.7 453.4 963.7Z" fill="#231f20" opacity="1" stroke-width="4" stroke="none"></path><path d="M453.4 886.5C471.35 886.5 485.9 871.95 485.9 854 485.9 836.05 471.35 821.5 453.4 821.5 435.45 821.5 420.9 836.05 420.9 854 420.9 871.95 435.45 886.5 453.4 886.5Z" fill="#595959" opacity="1" stroke-width="4" stroke="none"></path><path d="M596.7 875.7V854C596.7 848.2 596.3 842.3 595.6 836.5V836.3H946.2C946.2 836.4 945.1 848.2 945.1 854V875.7H596.7Z" fill="#ff4f32" opacity="1" stroke-width="4" stroke="none"></path><path d="M316.7 630.5H351.2C361.6 630.5 370 638.9 370 649.3V683.8C370 694.2 361.6 702.6 351.2 702.6H316.7C306.3 702.6 297.9 694.2 297.9 683.8V649.3C297.9 638.9 306.3 630.5 316.7 630.5Z" stroke="#1b1b1b" stroke-width="4" stroke-linecap="round" stroke-linejoin="round" opacity="1" fill="none"></path><path d="M751.7 626.7V461.3H845.8C863.8 461.3 880.8 468.3 893.6 481L1014.6 598.7C1019.5 603.4 1020.9 610.3 1018.3 616.5 1015.8 622.8 1010 626.7 1003.2 626.7H751.7Z" fill="#f7f6f5" opacity="1" stroke-width="4" stroke="none"></path><path d="M488 626.7C476.8 626.7 466.9 620.5 461.9 610.5 456.9 600.5 458.1 588.8 464.9 579.9L532.2 492.3C547.1 472.9 570.7 461.3 595.2 461.3H718.1V626.7H488V626.7Z" fill="#f7f6f5" opacity="1" stroke-width="4" stroke="none"></path><path d="M460.5 607.1C457.2 597.8 458.8 587.6 464.9 579.9L532.2 492.3C547.1 472.9 570.7 461.3 595.2 461.3H718.1V480.7H595.2C570.8 480.7 547.4 492.2 532.5 511.6L465.2 599.2C463.3 601.6 461.9 604.3 460.8 607.2L460.6 607.7 460.5 607.1Z" fill="#1b1b1b" opacity="0.2" stroke-width="4" stroke="none"></path><path d="M1016.4 619.4C1015.8 618.5 1015.1 617.7 1014.3 616.9L893.3 499.2C880.6 486.6 863.7 479.7 845.8 479.7H751.7V461.3H845.8C863.8 461.3 880.8 468.3 893.6 481L1014.6 598.7C1020.3 604.2 1021.2 612.9 1016.8 619.5L1016.6 619.7 1016.4 619.4Z" fill="#1b1b1b" opacity="0.2" stroke-width="4" stroke="none"></path><path d="M949.8 663.5C949 663.5 948.2 663.5 947.4 663.4 945.9 663.3 944.5 663 943.1 662.5 936.3 659.8 933 652.1 935.7 645.3L955.4 596.1C956 594.7 956.7 593.5 957.7 592.3 960.2 589.4 963.8 587.8 967.7 587.8 970.9 587.8 974 589 976.4 591.1 991 603.8 996.3 622.4 989.9 638.5 983.7 653.7 968 663.5 949.8 663.5Z" fill="#ff4f32" opacity="1" stroke-width="4" stroke="none"></path><path d="M949.9 663.5C949.1 663.5 948.3 663.5 947.5 663.4 946 663.3 944.6 663 943.2 662.5 936.4 659.8 933 652.1 935.7 645.3L937.6 640.6H937.9C940.2 640.9 942.6 641.1 944.9 641.1 950 641.1 955.1 640.4 960 638.9 972.9 635 984 626.6 991.2 615.2L991.4 614.8 991.5 615.3C993.4 623 992.9 631 989.9 638.4 983.8 653.7 968.1 663.5 949.9 663.5Z" fill="#515151" opacity="0.2" stroke-width="4" stroke="none"></path><path d="M1349.9 762.8C1342.1 762.8 1335.7 756.4 1335.7 748.6 1335.7 740.8 1342.1 734.4 1349.9 734.4H1383.6C1391.4 734.4 1397.8 740.8 1397.8 748.6 1397.8 756.4 1391.4 762.8 1383.6 762.8H1349.9Z" fill="#1b1b1b" opacity="0.2" stroke-width="4" stroke="none"></path><path d="M514.9 680.7C507.1 680.7 500.7 674.3 500.7 666.5 500.7 658.7 507.1 652.3 514.9 652.3H548.6C556.4 652.3 562.8 658.7 562.8 666.5 562.8 674.3 556.4 680.7 548.6 680.7H514.9Z" fill="#ff4f32" opacity="1" stroke-width="4" stroke="none"></path><path d="M793.8 680.7C786 680.7 779.6 674.3 779.6 666.5 779.6 658.7 786 652.3 793.8 652.3H827.5C835.3 652.3 841.7 658.7 841.7 666.5 841.7 674.3 835.3 680.7 827.5 680.7H793.8Z" fill="#ff4f32" opacity="1" stroke-width="4" stroke="none"></path><path d="M502.6 673.6C501.3 671.4 500.7 669 500.7 666.5 500.7 658.7 507.1 652.3 514.9 652.3H548.6C551.1 652.3 553.6 653 555.7 654.2 559 656.1 561.3 659.2 562.3 662.8 563.3 666.4 562.8 670.3 560.9 673.6L560.7 673.9 560.5 673.6C558 669.3 553.5 666.7 548.5 666.7H514.9C510 666.7 505.4 669.4 502.9 673.6L502.7 673.9 502.6 673.6Z" fill="#515151" opacity="0.2" stroke-width="4" stroke="none"></path><path d="M839.7 673.6C837.2 669.3 832.7 666.7 827.7 666.7H794C789.1 666.7 784.5 669.4 782 673.6L781.8 673.9 781.6 673.6C780.3 671.4 779.7 669 779.7 666.5 779.7 658.7 786.1 652.3 793.9 652.3H827.6C830.1 652.3 832.6 653 834.7 654.2 841.5 658.1 843.8 666.8 839.9 673.6L839.7 673.9V673.6Z" fill="#515151" opacity="0.2" stroke-width="4" stroke="none"></path><path d="M310.9 836.5H155.9" stroke="#1b1b1b" stroke-width="4" stroke-linecap="round" stroke-linejoin="round" opacity="1" fill="none"></path><path d="M944.9 836.5H595.9" stroke="#1b1b1b" stroke-width="4" stroke-linecap="round" stroke-linejoin="round" opacity="1" fill="none"></path><path d="M1447.9 837.7L1230.8 837.5" stroke="#1b1b1b" stroke-width="4" stroke-linecap="round" stroke-linejoin="round" opacity="1" fill="none"></path><path d="M1196.1 662.9L1398.8 683.9" stroke="#1b1b1b" stroke-width="4" stroke-linecap="round" stroke-linejoin="round" opacity="1" fill="none"></path><path d="M1374.1 662.3L1367.6 655.3C1359.5 648.4 1349.5 644 1339 642.5L1324.7 640.4" stroke="#1b1b1b" stroke-width="4" stroke-linecap="round" stroke-linejoin="round" opacity="1" fill="none"></path><path d="M718.1 461.3L734.4 461.5 751.7 461.3" stroke="#1b1b1b" stroke-width="4" stroke-linecap="round" stroke-linejoin="round" opacity="1" fill="none"></path><path d="M734.4 836.5V461.5" stroke="#1b1b1b" stroke-width="4" stroke-linecap="round" stroke-linejoin="round" opacity="1" fill="none"></path><path d="M1349.9 751.8C1342.1 751.8 1335.7 745.4 1335.7 737.6 1335.7 729.8 1342.1 723.4 1349.9 723.4H1383.6C1391.4 723.4 1397.8 729.8 1397.8 737.6 1397.8 745.4 1391.4 751.8 1383.6 751.8H1349.9Z" fill="#ffa0dc" opacity="1" stroke-width="4" stroke="none"></path><path d="M166.7 673.4V753.5" stroke="#1b1b1b" stroke-width="4" stroke-linecap="round" stroke-linejoin="round" opacity="1" fill="none"></path></g><g><path d="M775.53 696.79H710.09V847.41H775.53V696.79Z" stroke="#231f20" stroke-width="4" stroke-linecap="round" stroke-linejoin="round" opacity="1" fill="none"></path><path d="M704.38 709.47C697.63 709.47 692.23 704.06 692.23 697.31 692.23 690.56 697.63 685.16 704.38 685.16H781.25C788 685.16 793.4 690.56 793.4 697.31 793.4 704.06 788 709.47 781.25 709.47H704.38Z" fill="#231f20" opacity="1" stroke-width="4" stroke="none"></path><path d="M684.13 1050.57C660.03 1050.57 640.29 1030.94 640.29 1006.74V839.41C640.29 815.31 659.93 795.57 684.13 795.57H801.5C825.6 795.57 845.33 815.21 845.33 839.41V1006.74C845.33 1030.84 825.7 1050.57 801.5 1050.57H684.13Z" fill="#61ccff" opacity="1" stroke-width="4" stroke="none"></path><path d="M704.9 1027.72C689.32 1027.72 676.65 1015.05 676.65 999.47V923.65C676.65 908.07 689.32 895.39 704.9 895.39H780.73C796.31 895.39 808.98 908.07 808.98 923.65V999.47C808.98 1015.05 796.31 1027.72 780.73 1027.72H704.9Z" fill="#38a4d7" opacity="0.2" stroke-width="4" stroke="none"></path><path d="M704.9 1014.22C689.32 1014.22 676.65 1001.55 676.65 985.97V910.14C676.65 894.56 689.32 881.89 704.9 881.89H780.73C796.31 881.89 808.98 894.56 808.98 910.14V985.97C808.98 1001.55 796.31 1014.22 780.73 1014.22H704.9Z" fill="#ff4f32" opacity="1" stroke-width="4" stroke="none"></path><path d="M662.31 1074.46C674.48 1074.46 684.34 1064.61 684.34 1052.44 684.34 1040.28 674.48 1030.42 662.31 1030.42 650.15 1030.42 640.29 1040.28 640.29 1052.44 640.29 1064.61 650.15 1074.46 662.31 1074.46Z" fill="#231f20" opacity="1" stroke-width="4" stroke="none"></path><path d="M823.31 1074.46C835.48 1074.46 845.33 1064.61 845.33 1052.44 845.33 1040.28 835.48 1030.42 823.31 1030.42 811.15 1030.42 801.29 1040.28 801.29 1052.44 801.29 1064.61 811.15 1074.46 823.31 1074.46Z" fill="#231f20" opacity="1" stroke-width="4" stroke="none"></path><path d="M676.86 927.38H808.77" stroke="#230500" stroke-width="4" stroke-linecap="round" stroke-linejoin="round" opacity="1" fill="none"></path></g><g><path d="M508.71 432.95C506.06 419.1 502.18 398.62 500.45 388.84 497.8 372.74 490.77 347.06 506.87 331.68 521.14 318.54 546.81 314.87 565.46 322.51 583.59 329.34 588.38 345.33 595.51 366.52 595.51 366.63 595.61 366.73 595.72 366.73 597.24 366.93 603.97 367.85 604.68 371.01 605.6 374.37 601.52 379.77 600.61 380.99 600.5 381.09 600.5 381.2 600.5 381.3 609.17 407.79 605.09 426.03 579.01 426.84 575.24 426.84 571.77 426.33 568.82 425.31 568.61 425.21 568.41 425.41 568.41 425.62 568.61 427.04 569.33 431.32 569.43 432.44 569.43 432.55 569.33 432.75 569.23 432.75L546.61 438.25H546.51L508.71 432.95Z" fill="#8c5426" opacity="1" stroke-width="4" stroke="none"></path><path d="M343.04 1011.07C341.41 1011.07 339.98 1010.05 339.37 1008.52L334.68 995.57C332.34 989.05 327.25 983.65 320.83 980.8L297.09 970.61V970.3C299.64 959.3 301.98 948.5 305.95 938.11 305.95 938 306.05 937.9 306.16 937.9 308.4 937.6 332.14 935.15 353.33 944.32 359.65 947.07 385.32 971.73 387.46 973.77 387.56 973.87 387.56 973.97 387.56 974.07 384.91 979.37 382.47 983.24 381.04 986.2 380.43 987.32 360.77 977.54 360.77 977.74 355.57 975.29 349.25 979.06 348.85 984.77L346.81 1007.5C346.81 1009.64 345.08 1011.27 343.04 1011.07Z" fill="#8c5426" opacity="1" stroke-width="4" stroke="none"></path><path d="M545.28 1042.23C544.16 1042.23 543.24 1041.83 542.43 1041.01L532.95 1031.03C528.17 1025.93 521.44 1023.59 514.41 1023.59 514.41 1023.59 488.33 1023.38 485.58 1023.18 485.48 1023.18 485.37 1023.08 485.27 1022.98 483.74 1010.85 482.32 1000.77 481.81 988.13 481.81 988.03 481.91 987.83 482.01 987.83 485.27 987.01 523.89 981.1 525.31 980.9H525.41C526.84 981.1 566.27 987.32 569.94 987.83 570.14 987.83 570.24 988.03 570.14 988.13 569.23 996.18 568.72 1001.58 568.72 1003.82 568.72 1003.92 568.61 1004.03 568.51 1004.13 564.64 1005.55 549.46 1004.23 549.56 1004.33 546.4 1004.23 543.45 1006.17 542.02 1009.02 541 1011.06 540.8 1013.4 541.51 1015.54L548.75 1037.14C549.87 1039.58 547.93 1042.23 545.28 1042.23Z" fill="#8c5426" opacity="1" stroke-width="4" stroke="none"></path><path d="M712.99 725.98C708.61 725.47 703.51 716.5 697.09 705.19 690.37 693.48 682.12 678.7 671.52 668.11 671.42 668.01 671.42 667.8 671.52 667.7 674.07 664.85 708.91 634.69 711.87 631.84 711.97 631.73 712.17 631.73 712.27 631.84 726.33 647.22 736.52 660.98 742.02 669.33 748.14 679.93 764.95 707.94 754.25 717.01 754.15 717.01 754.15 717.11 754.15 717.22 753.84 720.48 752.21 724.76 746.92 724.76 745.39 724.76 743.86 724.45 741.92 723.74 741.72 723.74 741.72 723.74 741.62 723.84 731.33 730.46 718.39 712.63 713.7 706.72 713.39 706.52 713.19 706.82 713.39 707.13 714.41 711.82 718.08 724.35 712.99 725.98Z" fill="#8c5426" opacity="1" stroke-width="4" stroke="none"></path><path d="M661.84 681.66C621.8 646.61 596.12 596.48 591.95 588.02 591.84 587.82 591.44 587.82 591.44 588.13L587.06 605.65C587.06 605.75 586.95 605.85 586.75 605.85L493.01 605.45C492.91 605.45 492.91 605.45 492.81 605.55 491.28 607.08 471.01 629.29 468.97 630.92 468.87 631.02 468.77 631.02 468.66 630.92 411.51 610.03 433.92 550.12 451.34 503.05 459.49 482.47 468.26 465.66 474.06 459.24 486.8 445.28 506.36 441.41 509.72 440.9 509.93 440.9 510.03 440.7 509.93 440.6 509.32 437.95 508.91 435.5 508.4 433.06 508.4 432.85 508.5 432.75 508.6 432.75 513.09 432.34 565.05 432.75 569.12 432.65 569.23 432.65 569.43 432.75 569.43 432.85 569.63 434.48 570.96 442.94 571.16 444.26 571.16 444.37 571.26 444.47 571.37 444.47 575.44 445.08 612.22 451.7 629.95 500.5L657.56 572.13C657.56 572.13 657.56 572.23 657.66 572.23 659.19 573.86 707.28 626.64 711.56 631.33 711.66 631.43 711.66 631.63 711.56 631.73 708.81 635.1 665.3 678.7 661.94 681.56 662.15 681.76 661.94 681.66 661.84 681.66Z" fill="#61ccff" opacity="1" stroke-width="4" stroke="none"></path><path d="M468.87 631.02C461.12 628.37 453.79 623.99 448.59 619.51 448.49 619.41 448.49 619.2 448.59 619.1 450.53 617.57 462.45 607.49 464.38 587.21 462.75 543.4 474.78 539.53 476.71 539.12 476.92 539.12 477.02 539.22 477.02 539.32L490.47 605.04C490.47 605.14 490.47 605.24 490.37 605.24 488.84 606.87 470.91 629.19 468.97 630.92 469.07 631.02 468.97 631.02 468.87 631.02Z" fill="#081921" opacity="0.2" stroke-width="4" stroke="none"></path><path d="M557.61 605.35C576.15 590.27 567.49 560.01 578.6 556.85 578.7 556.85 578.9 556.85 578.9 557.05L591.54 587.31C591.54 587.41 591.54 587.41 591.54 587.52L587.06 605.75C587.06 605.85 586.95 605.96 586.75 605.96H557.71C557.51 605.85 557.41 605.55 557.61 605.35Z" fill="#081921" opacity="0.2" stroke-width="4" stroke="none"></path><path d="M557.92 420.52L568.41 425.01C568.51 425.01 568.61 425.11 568.61 425.21L570.65 438.76C570.65 439.07 570.35 439.27 570.14 438.97L557.81 420.73C557.61 420.63 557.81 420.52 557.92 420.52Z" fill="#000000" opacity="0.2" stroke-width="4" stroke="none"></path><path d="M438.91 539.63C398.97 538.92 388.38 492.35 421.29 474.52 421.39 474.42 421.49 474.22 421.39 474.12 408.76 455.67 406.92 433.67 416.7 415.23 428.93 390.26 461.23 380.99 488.33 388.94 488.53 389.04 488.74 388.84 488.74 388.63 488.43 373.66 486.49 344.92 506.46 329.54 530 312.42 571.57 311.81 586.04 341.66 586.14 341.77 586.04 341.87 586.04 341.97 585.12 342.99 579.11 349.41 569.23 349.41 566.98 349.41 564.64 349.1 562.2 348.49 561.99 348.39 561.79 348.69 561.89 348.9 566.88 358.78 564.84 373.66 557.31 380.48 557.2 380.58 557.1 380.58 557 380.48 555.47 379.67 545.49 372.84 536.42 372.84 530.92 372.84 527.04 375.39 524.8 380.48 518.59 393.83 538.46 407.08 544.67 410.23 544.77 410.23 544.77 410.34 544.77 410.44 549.56 434.58 539.27 485.83 493.83 484.41 484.76 484.41 474.37 482.57 463.16 479.01 463.06 479.01 462.86 479.01 462.86 479.11 461.33 481.86 449.41 505.5 439.32 539.53 439.12 539.53 439.02 539.63 438.91 539.63Z" fill="#010005" opacity="1" stroke-width="4" stroke="none"></path><path d="M585.32 389.75C586.95 393.12 591.95 393.63 594.49 392.71" stroke="#000000" stroke-width="4" stroke-linecap="round" stroke-linejoin="round" opacity="1" fill="none"></path><path d="M584 372.64C585.52 372.64 586.75 371.4 586.75 369.89 586.75 368.37 585.52 367.14 584 367.14 582.48 367.14 581.25 368.37 581.25 369.89 581.25 371.4 582.48 372.64 584 372.64Z" fill="#010005" opacity="1" stroke-width="4" stroke="none"></path><path d="M557.92 420.52C557.92 420.52 564.44 423.48 568.61 425.21" stroke="#000000" stroke-width="4" stroke-linecap="round" stroke-linejoin="round" opacity="1" fill="none"></path><path d="M540.29 387.82L548.64 392.81" stroke="#000000" stroke-width="4" stroke-linecap="round" stroke-linejoin="round" opacity="1" fill="none"></path><path d="M492.4 337.59C463.98 337.79 445.43 296.22 469.28 279.31 483.03 270.14 501.37 276.97 510.74 290.72 524.5 310.08 515.63 337.59 492.4 337.59Z" fill="#010005" opacity="1" stroke-width="4" stroke="none"></path><path d="M493.22 1059.86C489.75 1047.63 487.21 1035.92 485.37 1023.49 485.37 1023.28 485.48 1023.18 485.68 1023.18 488.84 1023.08 514.41 1022.67 514.41 1022.67 521.54 1022.67 528.37 1025.63 533.26 1030.82L542.74 1040.81C543.35 1041.52 544.26 1041.93 545.28 1041.93 547.63 1041.93 549.46 1039.58 548.64 1037.34L541.41 1015.74C539.58 1010.14 543.86 1003.82 549.97 1003.92 549.97 1003.92 566.27 1004.03 568.61 1004.03 568.82 1004.03 568.92 1004.13 568.92 1004.33 569.12 1024.61 581.45 1030.52 593.88 1040.4 602.54 1047.23 609.37 1051.61 613.65 1059.66 613.75 1059.86 613.65 1060.06 613.44 1060.06 605.5 1060.47 494.75 1064.65 493.22 1059.86Z" fill="#ffc930" opacity="1" stroke-width="4" stroke="none"></path><path d="M290.67 1011.06C291.99 997.4 294.03 983.04 297.09 970.3 297.09 970.1 297.29 970 297.5 970.1 300.35 971.32 321.34 980.59 321.54 980.59 327.96 983.34 333.16 989.15 335.4 995.47 335.6 995.87 340.08 1008.41 340.08 1008.51 340.59 1009.73 341.82 1010.65 343.14 1010.65 345.08 1010.85 346.71 1008.92 346.81 1007.49 346.91 1006.88 348.85 984.77 348.85 984.57 349.25 978.55 356.39 974.89 361.28 977.33 361.68 977.54 378.6 985.07 380.84 986.09 380.94 986.2 381.04 986.3 380.94 986.5 364.03 1021.14 390.31 1030.72 398.06 1057.62 398.16 1057.82 397.96 1058.03 397.75 1058.03 388.89 1057.31 317.36 1040.5 290.67 1011.26 290.77 1011.26 290.67 1011.16 290.67 1011.06Z" fill="#ffc930" stroke-linejoin="round" opacity="1" stroke-width="4" stroke="none"></path><path d="M587.97 602.7C587.97 602.59 587.87 602.49 587.67 602.49 584.71 602.49 571.67 602.39 554.15 602.39 543.04 602.29 522.15 602.39 507.18 602.49 504.63 602.49 503.1 602.49 503.1 602.49 495.97 602.49 490.88 602.49 490.06 602.49 489.96 602.49 489.96 602.49 489.86 602.59 431.78 654.05 429.44 728.02 394.29 798.52 382.88 821.04 357.2 845.39 340.19 870.45 325.31 891.24 314.1 913.55 306.16 937.8 306.16 937.9 306.16 938.11 306.36 938.21 311.05 940.25 383.08 972.03 387.56 973.97 387.66 974.07 387.87 973.97 387.97 973.87 395.61 962.35 397.24 958.18 406.51 943.2 431.37 901.32 453.69 874.94 477.22 835.1 485.58 820.43 493.73 803.41 501.57 785.38 501.68 785.07 502.08 785.17 502.08 785.48 504.63 811.16 503.31 837.03 492.91 875.14 485.58 903.97 482.01 932.71 481.5 962.35 481.4 971.83 481.2 978.45 481.91 987.72 481.91 987.83 482.01 988.03 482.21 988.03 487.31 988.03 565.15 988.03 570.14 988.03 570.24 988.03 570.45 987.93 570.45 987.83 576.05 943.51 586.85 876.26 592.86 833.77 607.13 728.93 594.09 626.64 587.97 602.7Z" fill="#ffa0dc" opacity="1" stroke-width="4" stroke="none"></path><path d="M488.94 698.47C488.94 698.16 488.53 698.06 488.43 698.37 474.17 722.41 480.89 752.77 481.91 777.94 482.72 804.94 478.85 826.85 477.63 833.16 477.53 833.47 478.04 833.67 478.14 833.37 486.49 818.49 494.54 801.68 501.98 784.36V784.26C499.74 759.5 492.51 733.62 488.94 698.47Z" fill="#91005c" opacity="0.2" stroke-width="4" stroke="none"></path><path d="M488.94 698.47C490.47 718.34 499.84 758.68 501.78 785.07" stroke="#91005c" stroke-width="4" stroke-linecap="round" stroke-linejoin="round" opacity="1" fill="none"></path><path d="M591.95 587.82L579.01 556.95" stroke="#081921" stroke-width="4" stroke-linecap="round" stroke-linejoin="round" opacity="1" fill="none"></path><path d="M477.12 539.32L490.06 602.39 587.87 602.59" stroke="#081921" stroke-width="4" stroke-linecap="round" stroke-linejoin="round" opacity="1" fill="none"></path><path d="M483.44 571.62L471.92 576.92" stroke="#081921" stroke-width="4" stroke-linecap="round" stroke-linejoin="round" opacity="1" fill="none"></path><path d="M375.23 1013.4L361.68 1017.27" stroke="#1b1b1b" stroke-width="4" stroke-linecap="round" stroke-linejoin="round" opacity="1" fill="none"></path><path d="M378.29 1022.87L368.82 1029.5" stroke="#1b1b1b" stroke-width="4" stroke-linecap="round" stroke-linejoin="round" opacity="1" fill="none"></path><path d="M575.64 1025.12L565.56 1033.06" stroke="#1b1b1b" stroke-width="4" stroke-linecap="round" stroke-linejoin="round" opacity="1" fill="none"></path><path d="M582.98 1032.04L576.87 1041.72" stroke="#1b1b1b" stroke-width="4" stroke-linecap="round" stroke-linejoin="round" opacity="1" fill="none"></path><path d="M741.72 723.64L717.27 686.14" stroke="#000000" stroke-width="4" stroke-linecap="round" stroke-linejoin="round" opacity="1" fill="none"></path><path d="M753.84 717.01L728.47 676.97" stroke="#000000" stroke-width="4" stroke-linecap="round" stroke-linejoin="round" opacity="1" fill="none"></path><path d="M290.06 1027.05C289.96 1027.05 289.85 1026.95 289.85 1026.75 289.85 1025.32 290.57 1013.91 290.67 1011.57 290.67 1011.36 290.87 1011.26 291.08 1011.36L398.16 1058.03C398.26 1058.03 398.36 1058.13 398.36 1058.23 398.57 1059.45 399.59 1067.7 397.14 1073.41 397.04 1073.51 396.94 1073.61 396.73 1073.51L290.06 1027.05Z" fill="#1b1b1b" stroke-linejoin="round" opacity="1" stroke-width="4" stroke="none"></path><path d="M497.7 1073.51C496.38 1069.95 493.83 1062 493.32 1060.17 493.22 1059.96 493.42 1059.76 493.63 1059.76H613.55C613.65 1059.76 613.75 1059.86 613.85 1059.96 615.99 1064.04 616.91 1068.72 616.7 1073.41 616.7 1073.61 616.6 1073.72 616.4 1073.72 610.18 1073.72 503.1 1073.72 498.01 1073.72 497.91 1073.72 497.8 1073.61 497.7 1073.51Z" fill="#1b1b1b" opacity="1" stroke-width="4" stroke="none"></path></g></svg>