<svg xmlns="http://www.w3.org/2000/svg" height="1200" width="1600" version="1.1" xmlns:xlink="http://www.w3.org/1999/xlink" xmlns:svgjs="http://svgjs.com/svgjs"><rect fill="#f3ebe9" width="1600" height="1200"></rect><g><path d="M1036.62 158.59L1050.52 123.61C1051.09 122.16 1052.5 121.2 1054.1 121.2 1055.58 121.2 1056.82 122.01 1057.42 123.32 1058.02 124.63 1058.09 126.22 1057.67 128.06 1058.06 128.17 1059.9 128.77 1060.99 130.68 1062.02 132.41 1062.09 134.71 1061.28 137.47 1061.49 137.62 1062.55 138.39 1063.33 139.91 1064.11 141.51 1064.78 144.23 1063.36 148.33 1060.92 155.44 1059.51 158.84 1059.47 158.88L1059.44 158.91 1036.62 158.59Z" fill="#9e76dd" opacity="1" stroke-width="4" stroke="none"></path><path d="M1055.65 145.61C1050.38 148.23 1044.97 149.61 1040.12 149.78L1036.62 158.59 1059.47 158.95 1059.51 158.91C1059.51 158.88 1060.96 155.48 1063.4 148.37 1064.67 144.69 1064.28 142.14 1063.61 140.48 1061.28 142.39 1058.62 144.12 1055.65 145.61Z" fill="#1b0045" opacity="0.2" stroke-width="4" stroke="none"></path><path d="M1030.04 157.11H1017.69C1016.92 157.11 1016.63 158.13 1017.27 158.52L1030.04 166.8V157.11 157.11Z" fill="#231f20" opacity="1" stroke-width="4" stroke="none"></path><path d="M1057.67 128.1L1045.92 157.81" stroke="#1f1c24" stroke-width="4" stroke-linecap="round" stroke-linejoin="round" opacity="1" fill="none"></path><path d="M1061.31 137.44L1053.56 157" stroke="#1f1c24" stroke-width="4" stroke-linecap="round" stroke-linejoin="round" opacity="1" fill="none"></path><path d="M1053.32 178.58C1046.07 178.58 1039.66 173.63 1036.44 170.69 1035.06 169.42 1033.33 168.5 1031.49 168.11L1027.39 167.26C1024.13 166.59 1021.94 163.58 1022.26 160.29 1022.58 156.93 1025.37 154.42 1028.73 154.42L1090.82 154.15V154.14C1097.68 154.1 1093.01 160.5 1091.31 162.87 1089.61 165.21 1086.89 166.62 1084.06 166.62 1083.14 166.62 1082.22 166.48 1081.3 166.2L1077.8 165.1C1077.34 164.96 1076.88 164.89 1076.42 164.89 1075.18 164.89 1073.94 165.42 1073.09 166.3 1072.56 166.87 1071.96 167.54 1071.32 168.29 1067.75 172.39 1062.34 178.58 1053.32 178.58Z" fill="#ffc930" opacity="1" stroke-width="4" stroke="none"></path><path d="M1084.45 160.36L1091.84 161.35" stroke="#000000" stroke-width="4" stroke-linecap="round" stroke-linejoin="round" opacity="1" fill="none"></path><path d="M1028.27 161.56C1029.25 161.56 1030.04 160.77 1030.04 159.8 1030.04 158.82 1029.25 158.03 1028.27 158.03 1027.3 158.03 1026.5 158.82 1026.5 159.8 1026.5 160.77 1027.3 161.56 1028.27 161.56Z" fill="#000000" opacity="1" stroke-width="4" stroke="none"></path><path d="M1053.32 178.58C1046.07 178.58 1039.63 173.63 1036.44 170.69 1036.3 170.55 1036.12 170.41 1035.95 170.27L1035.88 170.23 1035.95 170.16C1036.41 169.74 1036.87 169.35 1037.33 168.99 1041.08 166.06 1045.61 164.5 1050.35 164.5 1056.93 164.5 1063.01 167.47 1067.08 172.67L1067.11 172.71 1067.08 172.74C1062.83 176.67 1058.34 178.58 1053.32 178.58Z" fill="#fffefc" opacity="1" stroke-width="4" stroke="none"></path><path d="M1054.7 169.2C1050.2 169.2 1045.89 167.58 1042.53 164.57 1041.5 163.69 1040.9 162.45 1040.83 161.07 1040.76 159.69 1041.18 158.42 1042.1 157.39 1042.24 157.21 1042.42 157.07 1042.56 156.93L1071.78 131.6C1072.49 131 1073.37 130.65 1074.29 130.65 1075.39 130.65 1076.42 131.11 1077.16 131.88 1077.83 132.63 1078.19 133.58 1078.15 134.61 1078.08 136.09 1077.41 137.54 1076.13 138.99 1076.42 139.28 1077.8 140.69 1077.9 142.92 1078.01 144.97 1077.02 147.06 1075 149.18 1075.28 149.71 1077.55 154.45 1071.78 159.94L1067.22 164.22C1063.86 167.44 1059.4 169.2 1054.7 169.2Z" fill="#9e76dd" opacity="1" stroke-width="4" stroke="none"></path><path d="M1076.13 139.03L1059.3 153.71" stroke="#1f1c24" stroke-width="4" stroke-linecap="round" stroke-linejoin="round" opacity="1" fill="none"></path><path d="M1075.04 149.15L1065.63 157.35" stroke="#1f1c24" stroke-width="4" stroke-linecap="round" stroke-linejoin="round" opacity="1" fill="none"></path></g><g><path d="M1224.15 250.24V249.77C1224.15 249.62 1224.15 249.46 1224.15 249.22 1224.15 245.06 1223.6 240.89 1222.43 236.81 1216.93 217.72 1199.25 204.44 1179.45 204.44 1175.28 204.44 1171.2 204.99 1167.19 206.17 1159.81 195.4 1148.81 187.47 1136.24 183.85 1131.21 182.44 1126.02 181.65 1120.76 181.65 1095.93 181.65 1073.77 198.31 1066.86 222.2 1062.3 219.68 1057.12 218.42 1051.85 218.42 1034.33 218.42 1020.19 232.64 1020.19 250.09V250.24H1224.15Z" fill="#ffa0dc" opacity="1" stroke-width="4" stroke="none"></path><path d="M815.2 147.63V147.24C815.2 147.08 815.2 146.93 815.2 146.77 815.2 137.03 811.43 127.91 804.52 121.08 797.68 114.24 788.49 110.39 778.82 110.39 775.45 110.39 772.07 110.86 768.85 111.81 760.36 99.39 746.22 91.93 731.13 91.93 721.94 91.93 713.14 94.68 705.52 99.86 689.96 110.47 682.5 129.17 686.66 147.55V147.71L815.2 147.63Z" fill="#ffa0dc" opacity="1" stroke-width="4" stroke="none"></path><path d="M671.1 147.63V147.48C671.1 133.26 659.56 121.71 645.33 121.71 631.11 121.71 619.56 133.26 619.56 147.48V147.63H671.1Z" fill="#ffa0dc" opacity="1" stroke-width="4" stroke="none"></path><path d="M1503.39 177.49V177.33C1507.16 160.68 1500.4 143.63 1486.26 134.04 1479.35 129.33 1471.33 126.89 1463.01 126.89 1449.33 126.89 1436.53 133.65 1428.83 144.88 1425.92 144.02 1422.86 143.63 1419.79 143.63 1401.56 143.63 1386.79 158.48 1386.79 176.63 1386.79 176.78 1386.79 176.86 1386.79 177.02V177.41L1503.39 177.41V177.49Z" fill="#ffa0dc" opacity="1" stroke-width="4" stroke="none"></path></g><g><path d="M705.99 165.53C749.25 96.66 850.49 96.66 893.74 165.53L1358.12 905.78 241.62 905.78 705.99 165.53Z" fill="#cecece" opacity="1" stroke-width="4" stroke="none"></path><path d="M705.99 165.52C727.56 131.02 763.71 113.83 799.87 113.83L585.04 905.77H241.62L705.99 165.52Z" fill="#b3b3b3" opacity="1" stroke-width="4" stroke="none"></path><path d="M923.59 291.28C902.81 291.28 883.09 282.43 869.42 267.07 858.9 305.08 819.2 327.47 780.67 317.06 756.09 310.42 737.02 291.41 730.19 267.07 705.99 294.28 665.11 299.22 635 278.52L721.64 140.52C757.66 83.11 841.94 83.11 877.97 140.52L964.61 278.52C952.51 286.85 938.18 291.28 923.59 291.28Z" fill="#fffefc" opacity="1" stroke-width="4" stroke="none"></path></g><g><path d="M671.66 330.79L660.84 314.84 555.41 376.2 574.2 266.99 562.44 263.88 513.78 400.26 456.33 433.65 449.84 245.5 555.28 171.56 549.19 160.34 448.49 203.86 445.52 115.06H421.19L413.48 340.25 242.22 181.15 229.92 192.91 311.43 289.83 200.73 302 200.86 314.84 342.65 327 411.05 408.24 407.67 508.13 268.18 487.72 262.9 506.1 405.64 566.79 394.15 905.8H472.55L458.49 498.53 671.66 330.79Z" fill="#3c2c5b" opacity="1" stroke-width="4" stroke="none"></path><path d="M430.78 356.33L427.95 115.06H421.19L413.48 340.25 430.78 356.33Z" fill="#000000" opacity="0.3" stroke-width="4" stroke="none"></path><path d="M432.68 511.78L432.14 464.74C431.87 444.06 424.43 424.05 411.19 408.24L407.81 508.13 432.68 511.78Z" fill="#000000" opacity="0.3" stroke-width="4" stroke="none"></path><path d="M405.64 566.79L394.02 905.8H437.27L433.76 608.7C433.62 590.45 422.54 573.96 405.64 566.79Z" fill="#000000" opacity="0.3" stroke-width="4" stroke="none"></path><path d="M405.64 566.79L427.95 575.99" stroke="#000000" stroke-width="4" stroke-linecap="round" stroke-linejoin="round" opacity="1" fill="none"></path><path d="M456.33 433.65L457.41 463.52" stroke="#000000" stroke-width="4" stroke-linecap="round" stroke-linejoin="round" opacity="1" fill="none"></path><path d="M448.49 203.86L449.17 222.65" stroke="#000000" stroke-width="4" stroke-linecap="round" stroke-linejoin="round" opacity="1" fill="none"></path><path d="M413.48 340.25L430.78 356.33" stroke="#000000" stroke-width="4" stroke-linecap="round" stroke-linejoin="round" opacity="1" fill="none"></path><path d="M311.43 289.83L321.7 302" stroke="#000000" stroke-width="4" stroke-linecap="round" stroke-linejoin="round" opacity="1" fill="none"></path></g><g><path d="M1353.37 375.85V904.88H1381.48V375.85H1353.37Z" fill="#ffa0dc" opacity="1" stroke-width="4" stroke="none"></path><path d="M1353.37 375.85V904.88H1363.74V375.85H1353.37Z" fill="#c0bebf" opacity="0.3" stroke-width="4" stroke="none"></path><path d="M1353.37 595.53H1381.48" stroke="#888888" stroke-width="4" stroke-linecap="round" stroke-linejoin="round" opacity="1" fill="none"></path><path d="M1353.37 471.34H1381.48" stroke="#888888" stroke-width="4" stroke-linecap="round" stroke-linejoin="round" opacity="1" fill="none"></path><path d="M1299.28 459.9C1276.59 430.82 1271.06 396.98 1271.06 396.98 1271.06 396.98 1302.47 410.46 1325.26 439.64 1348.04 468.82 1353.47 502.56 1353.47 502.56 1353.47 502.56 1321.96 488.99 1299.28 459.9Z" fill="#3c2c5b" opacity="1" stroke-width="4" stroke="none"></path><path d="M1299.28 459.9C1276.59 430.82 1271.06 396.98 1271.06 396.98L1353.47 502.56C1353.47 502.56 1321.96 488.99 1299.28 459.9Z" fill="#1c1c1c" opacity="0.3" stroke-width="4" stroke="none"></path><path d="M1431.7 526.89C1463.21 511.96 1495.4 513.8 1495.4 513.8 1495.4 513.8 1476.59 539.98 1445.08 555 1413.57 570.03 1381.39 568.09 1381.39 568.09 1381.39 568.09 1400.2 541.92 1431.7 526.89Z" fill="#3c2c5b" opacity="1" stroke-width="4" stroke="none"></path><path d="M1495.49 513.8C1495.49 513.8 1476.69 539.98 1445.18 555 1413.67 570.03 1381.48 568.09 1381.48 568.09L1495.49 513.8Z" fill="#1c1c1c" opacity="0.3" stroke-width="4" stroke="none"></path><path d="M1446.15 574.59C1479.01 586.22 1500.44 610.36 1500.44 610.36 1500.44 610.36 1468.54 615.6 1435.68 603.87 1402.81 592.13 1381.39 568.09 1381.39 568.09 1381.39 568.09 1413.28 562.86 1446.15 574.59Z" fill="#3c2c5b" opacity="1" stroke-width="4" stroke="none"></path><path d="M1500.44 610.36C1500.44 610.36 1468.54 615.6 1435.68 603.87 1402.81 592.13 1381.39 568.09 1381.39 568.09L1500.44 610.36Z" fill="#1c1c1c" opacity="0.3" stroke-width="4" stroke="none"></path><path d="M1400.49 384.09C1418.42 354.13 1446.24 337.85 1446.24 337.85 1446.24 337.85 1445.18 370.13 1427.24 400.09 1409.31 430.04 1381.48 446.33 1381.48 446.33 1381.48 446.33 1382.55 414.05 1400.49 384.09Z" fill="#3c2c5b" opacity="1" stroke-width="4" stroke="none"></path><path d="M1446.24 337.85C1446.24 337.85 1445.18 370.13 1427.24 400.09 1409.31 430.04 1381.48 446.33 1381.48 446.33L1446.24 337.85Z" fill="#1c1c1c" opacity="0.3" stroke-width="4" stroke="none"></path><path d="M1438.88 415.79C1472.71 407.26 1503.93 415.5 1503.93 415.5 1503.93 415.5 1480.27 437.51 1446.54 446.04 1412.8 454.57 1381.48 446.33 1381.48 446.33 1381.48 446.33 1405.04 424.23 1438.88 415.79Z" fill="#3c2c5b" opacity="1" stroke-width="4" stroke="none"></path><path d="M1503.93 415.4C1503.93 415.4 1480.27 437.41 1446.54 445.94 1412.8 454.47 1381.48 446.23 1381.48 446.23L1503.93 415.4Z" fill="#1c1c1c" opacity="0.3" stroke-width="4" stroke="none"></path><path d="M1353.37 719.81H1381.48" stroke="#888888" stroke-width="4" stroke-linecap="round" stroke-linejoin="round" opacity="1" fill="none"></path><path d="M1353.08 844H1381.19" stroke="#888888" stroke-width="4" stroke-linecap="round" stroke-linejoin="round" opacity="1" fill="none"></path><path d="M1285.02 510.7C1248.38 506.14 1220.65 486.17 1220.65 486.17 1220.65 486.17 1252.35 473.47 1289 478.03 1325.64 482.59 1353.37 502.56 1353.37 502.56 1353.37 502.56 1321.67 515.26 1285.02 510.7Z" fill="#3c2c5b" opacity="1" stroke-width="4" stroke="none"></path><path d="M1285.02 510.7C1248.38 506.14 1220.65 486.17 1220.65 486.17L1353.37 502.56C1353.37 502.56 1321.67 515.26 1285.02 510.7Z" fill="#1c1c1c" opacity="0.3" stroke-width="4" stroke="none"></path><path d="M1286.09 554.91V904.88H1314.21V554.91H1286.09Z" fill="#ffa0dc" opacity="1" stroke-width="4" stroke="none"></path><path d="M1286.09 554.91V904.88H1296.08V554.91H1286.09Z" fill="#c0bebf" opacity="0.3" stroke-width="4" stroke="none"></path><path d="M1286.09 735.13H1314.21" stroke="#888888" stroke-width="4" stroke-linecap="round" stroke-linejoin="round" opacity="1" fill="none"></path><path d="M1286.09 610.94H1314.21" stroke="#888888" stroke-width="4" stroke-linecap="round" stroke-linejoin="round" opacity="1" fill="none"></path><path d="M1230.54 641.29C1206.6 613.17 1199.62 579.63 1199.62 579.63 1199.62 579.63 1231.61 591.75 1255.55 619.86 1279.5 647.98 1286.48 681.52 1286.48 681.52 1286.48 681.52 1254.58 669.4 1230.54 641.29Z" fill="#3c2c5b" opacity="1" stroke-width="4" stroke="none"></path><path d="M1230.54 641.29C1206.6 613.17 1199.62 579.63 1199.62 579.63L1286.38 681.42C1286.48 681.52 1254.58 669.4 1230.54 641.29Z" fill="#1c1c1c" opacity="0.3" stroke-width="4" stroke="none"></path><path d="M1347.26 699.45C1371.69 674.54 1402.52 665.13 1402.52 665.13 1402.52 665.13 1393.89 696.25 1369.56 721.17 1345.23 746.08 1314.3 755.49 1314.3 755.49 1314.3 755.49 1322.83 724.47 1347.26 699.45Z" fill="#3c2c5b" opacity="1" stroke-width="4" stroke="none"></path><path d="M1402.43 665.13C1402.43 665.13 1393.8 696.25 1369.46 721.17 1345.13 746.08 1314.21 755.49 1314.21 755.49L1402.43 665.13Z" fill="#1c1c1c" opacity="0.3" stroke-width="4" stroke="none"></path><path d="M1377.22 739.2C1412.12 738.81 1440.52 754.03 1440.52 754.03 1440.52 754.03 1412.41 769.93 1377.61 770.32 1342.8 770.71 1314.3 755.49 1314.3 755.49 1314.3 755.49 1342.32 739.59 1377.22 739.2Z" fill="#3c2c5b" opacity="1" stroke-width="4" stroke="none"></path><path d="M1440.52 754.03C1440.52 754.03 1412.41 769.93 1377.61 770.32 1342.8 770.71 1314.3 755.49 1314.3 755.49L1440.52 754.03Z" fill="#1c1c1c" opacity="0.3" stroke-width="4" stroke="none"></path><path d="M1286.09 859.32H1314.21" stroke="#888888" stroke-width="4" stroke-linecap="round" stroke-linejoin="round" opacity="1" fill="none"></path><path d="M1218.62 692.67C1181.78 689.66 1153.18 670.95 1153.18 670.95 1153.18 670.95 1184.3 656.89 1221.14 659.8 1257.98 662.71 1286.58 681.52 1286.58 681.52 1286.58 681.52 1255.46 695.58 1218.62 692.67Z" fill="#3c2c5b" opacity="1" stroke-width="4" stroke="none"></path><path d="M1218.62 692.67C1181.78 689.66 1153.18 670.95 1153.18 670.95L1286.58 681.52C1286.58 681.52 1255.46 695.58 1218.62 692.67Z" fill="#1c1c1c" opacity="0.3" stroke-width="4" stroke="none"></path></g><g><path d="M243.37 470.91V904.02H266.39V470.91H243.37Z" fill="#ffa0dc" opacity="1" stroke-width="4" stroke="none"></path><path d="M243.37 470.91V904.02H251.87V470.91H243.37Z" fill="#c0bebf" opacity="0.3" stroke-width="4" stroke="none"></path><path d="M243.37 650.76H266.39" stroke="#888888" stroke-width="4" stroke-linecap="round" stroke-linejoin="round" opacity="1" fill="none"></path><path d="M243.37 549.09H266.39" stroke="#888888" stroke-width="4" stroke-linecap="round" stroke-linejoin="round" opacity="1" fill="none"></path><path d="M199.09 539.72C180.51 515.91 175.99 488.21 175.99 488.21 175.99 488.21 201.71 499.24 220.36 523.13 239.01 547.02 243.45 574.64 243.45 574.64 243.45 574.64 217.66 563.53 199.09 539.72Z" fill="#3c2c5b" opacity="1" stroke-width="4" stroke="none"></path><path d="M199.09 539.72C180.51 515.91 175.99 488.21 175.99 488.21L243.45 574.64C243.45 574.64 217.66 563.53 199.09 539.72Z" fill="#1c1c1c" opacity="0.3" stroke-width="4" stroke="none"></path><path d="M307.5 594.56C333.3 582.34 359.65 583.85 359.65 583.85 359.65 583.85 344.25 605.28 318.46 617.58 292.66 629.88 266.31 628.3 266.31 628.3 266.31 628.3 281.71 606.87 307.5 594.56Z" fill="#3c2c5b" opacity="1" stroke-width="4" stroke="none"></path><path d="M359.73 583.85C359.73 583.85 344.33 605.28 318.54 617.58 292.74 629.88 266.39 628.3 266.39 628.3L359.73 583.85Z" fill="#1c1c1c" opacity="0.3" stroke-width="4" stroke="none"></path><path d="M319.33 633.61C346.24 643.14 363.78 662.9 363.78 662.9 363.78 662.9 337.66 667.19 310.76 657.58 283.85 647.98 266.31 628.3 266.31 628.3 266.31 628.3 292.42 624.01 319.33 633.61Z" fill="#3c2c5b" opacity="1" stroke-width="4" stroke="none"></path><path d="M363.78 662.9C363.78 662.9 337.66 667.19 310.76 657.58 283.85 647.98 266.31 628.3 266.31 628.3L363.78 662.9Z" fill="#1c1c1c" opacity="0.3" stroke-width="4" stroke="none"></path><path d="M281.95 477.65C296.63 453.13 319.41 439.79 319.41 439.79 319.41 439.79 318.54 466.22 303.85 490.75 289.17 515.27 266.39 528.61 266.39 528.61 266.39 528.61 267.26 502.18 281.95 477.65Z" fill="#3c2c5b" opacity="1" stroke-width="4" stroke="none"></path><path d="M319.41 439.79C319.41 439.79 318.54 466.22 303.85 490.75 289.17 515.27 266.39 528.61 266.39 528.61L319.41 439.79Z" fill="#1c1c1c" opacity="0.3" stroke-width="4" stroke="none"></path><path d="M313.38 503.61C341.08 496.62 366.63 503.37 366.63 503.37 366.63 503.37 347.27 521.39 319.65 528.37 292.03 535.36 266.39 528.61 266.39 528.61 266.39 528.61 285.68 510.51 313.38 503.61Z" fill="#3c2c5b" opacity="1" stroke-width="4" stroke="none"></path><path d="M366.63 503.29C366.63 503.29 347.27 521.31 319.65 528.29 292.03 535.28 266.39 528.53 266.39 528.53L366.63 503.29Z" fill="#1c1c1c" opacity="0.3" stroke-width="4" stroke="none"></path><path d="M243.37 752.51H266.39" stroke="#888888" stroke-width="4" stroke-linecap="round" stroke-linejoin="round" opacity="1" fill="none"></path><path d="M243.14 854.18H266.15" stroke="#888888" stroke-width="4" stroke-linecap="round" stroke-linejoin="round" opacity="1" fill="none"></path><path d="M187.42 581.31C157.42 577.58 134.72 561.23 134.72 561.23 134.72 561.23 160.67 550.83 190.67 554.56 220.67 558.29 243.37 574.64 243.37 574.64 243.37 574.64 217.42 585.04 187.42 581.31Z" fill="#3c2c5b" opacity="1" stroke-width="4" stroke="none"></path><path d="M187.42 581.31C157.42 577.58 134.72 561.23 134.72 561.23L243.37 574.64C243.37 574.64 217.42 585.04 187.42 581.31Z" fill="#1c1c1c" opacity="0.3" stroke-width="4" stroke="none"></path><path d="M188.29 617.5V904.02H211.31V617.5H188.29Z" fill="#ffa0dc" opacity="1" stroke-width="4" stroke="none"></path><path d="M188.29 617.5V904.02H196.47V617.5H188.29Z" fill="#c0bebf" opacity="0.3" stroke-width="4" stroke="none"></path><path d="M188.29 765.05H211.31" stroke="#888888" stroke-width="4" stroke-linecap="round" stroke-linejoin="round" opacity="1" fill="none"></path><path d="M188.29 663.38H211.31" stroke="#888888" stroke-width="4" stroke-linecap="round" stroke-linejoin="round" opacity="1" fill="none"></path><path d="M142.81 688.22C123.21 665.2 117.49 637.74 117.49 637.74 117.49 637.74 143.69 647.66 163.29 670.68 182.89 693.7 188.61 721.16 188.61 721.16 188.61 721.16 162.5 711.24 142.81 688.22Z" fill="#3c2c5b" opacity="1" stroke-width="4" stroke="none"></path><path d="M142.81 688.22C123.21 665.2 117.49 637.74 117.49 637.74L188.53 721.08C188.61 721.16 162.5 711.24 142.81 688.22Z" fill="#1c1c1c" opacity="0.3" stroke-width="4" stroke="none"></path><path d="M238.37 735.84C258.37 715.44 283.61 707.74 283.61 707.74 283.61 707.74 276.55 733.22 256.63 753.62 236.71 774.02 211.39 781.72 211.39 781.72 211.39 781.72 218.37 756.32 238.37 735.84Z" fill="#3c2c5b" opacity="1" stroke-width="4" stroke="none"></path><path d="M283.53 707.74C283.53 707.74 276.47 733.22 256.55 753.62 236.63 774.02 211.31 781.72 211.31 781.72L283.53 707.74Z" fill="#1c1c1c" opacity="0.3" stroke-width="4" stroke="none"></path><path d="M262.9 768.38C291.47 768.07 314.73 780.53 314.73 780.53 314.73 780.53 291.71 793.54 263.22 793.86 234.72 794.18 211.39 781.72 211.39 781.72 211.39 781.72 234.33 768.7 262.9 768.38Z" fill="#3c2c5b" opacity="1" stroke-width="4" stroke="none"></path><path d="M314.73 780.53C314.73 780.53 291.71 793.54 263.22 793.86 234.72 794.18 211.39 781.72 211.39 781.72L314.73 780.53Z" fill="#1c1c1c" opacity="0.3" stroke-width="4" stroke="none"></path><path d="M188.29 866.72H211.31" stroke="#888888" stroke-width="4" stroke-linecap="round" stroke-linejoin="round" opacity="1" fill="none"></path><path d="M133.05 730.29C102.89 727.83 79.48 712.51 79.48 712.51 79.48 712.51 104.95 701 135.11 703.38 165.27 705.76 188.69 721.16 188.69 721.16 188.69 721.16 163.21 732.67 133.05 730.29Z" fill="#3c2c5b" opacity="1" stroke-width="4" stroke="none"></path><path d="M133.05 730.29C102.89 727.83 79.48 712.51 79.48 712.51L188.69 721.16C188.69 721.16 163.21 732.67 133.05 730.29Z" fill="#1c1c1c" opacity="0.3" stroke-width="4" stroke="none"></path></g><g><path d="M1251.13 907.29C1255.94 886.77 1258.99 838.5 1259.72 800.85 1260.45 763.76 1259.2 723.44 1253.58 721.57 1250.52 744.4 1236.73 825.43 1232.47 907.55L1235.91 908.23 1246.54 908.19Z" fill="#e2a700" opacity="1" stroke-width="4" stroke="none"></path><path d="M1238.63 908.22C1240.31 825.27 1250.57 744.37 1253.62 721.58 1253.47 721.52 1253.33 721.49 1253.19 721.49 1246.86 721.73 1239.78 744.93 1232.13 790.45 1232.34 790.48 1232.55 790.52 1232.76 790.56 1235.37 791.16 1237.01 793.75 1236.41 796.34 1235.9 798.55 1233.95 800.09 1231.68 800.09 1231.31 800.09 1230.94 800.05 1230.58 799.97 1228.78 811.27 1227 823.43 1225.14 837.18 1222 860.5 1221.95 878.89 1222.46 890.2 1223.02 902.46 1225.32 906.64 1229.55 908.29L1233.32 908.23 1236.42 908.22Z" fill="#ffc930" stroke-linejoin="round" opacity="1" stroke-width="4" stroke="none"></path><path d="M1268.24 906.48C1270.05 906.24 1278.9 882.07 1285.76 857.36 1285.06 857.33 1284.37 857.15 1283.77 856.81 1281.73 855.67 1281 853.09 1282.15 851.07 1282.9 849.74 1284.32 848.92 1285.85 848.92 1286.58 848.92 1287.3 849.11 1287.93 849.46 1290.79 839.15 1292.97 831.2 1294.59 825.13 1298.9 808.98 1302.18 789.83 1303.38 773.91 1302.07 773.83 1300.88 773.27 1300.01 772.32 1299.13 771.36 1298.69 770.13 1298.75 768.84 1298.87 766.27 1301 764.25 1303.6 764.25 1303.68 764.25 1303.76 764.25 1303.84 764.25 1304.02 754.57 1303.86 743.21 1301.08 741.26 1300.92 741.15 1300.74 741.05 1300.56 740.96 1292.9 763.3 1256.86 877.21 1252.43 907.96L1253.13 908.18H1264.34V908.2Z" fill="#e2a700" stroke-linejoin="round" opacity="1" stroke-width="4" stroke="none"></path><path d="M1253.14 908.19C1257.61 877.27 1293.45 763.47 1300.59 740.97 1300.24 740.8 1299.87 740.73 1299.5 740.73 1293.8 740.73 1286.02 759.12 1279.17 777.12 1274.14 790.33 1270.69 802.01 1264.98 821.36 1262.88 828.47 1260.51 836.53 1257.65 846.03 1247.21 880.69 1246.49 907.91 1246.48 908.18L1246.48 908.19H1253.14V908.2Z" fill="#ffc930" opacity="1" stroke-width="4" stroke="none"></path><path d="M1290.75 908.17C1294.28 905.3 1297.88 902.2 1301.45 898.94 1301.32 898.8 1301.2 898.68 1301.09 898.55 1299.73 896.92 1299.96 894.51 1301.58 893.17 1302.27 892.6 1303.14 892.29 1304.04 892.29 1305.19 892.29 1306.27 892.79 1307 893.66 1324.07 877.01 1336.87 859.28 1336.15 853.31 1336.06 852.51 1335.72 851.94 1335.15 851.6 1335.05 851.55 1334.95 851.51 1334.85 851.47L1277.2 908.19H1290.75V908.17Z" fill="#e2a700" stroke-linejoin="round" opacity="1" stroke-width="4" stroke="none"></path><path d="M1277.61 907.86L1334.89 851.49C1334.27 851.21 1333.52 851.08 1332.67 851.08 1320.06 851.08 1284.67 878.75 1264.16 908.18L1264.29 908.19H1277.32V908.13Z" fill="#ffc930" stroke-linejoin="round" opacity="1" stroke-width="4" stroke="none"></path><path d="M1228.41 897.69C1226.9 887.61 1220.58 864.48 1210 841.16 1201.76 823.01 1191 805.13 1179.7 790.82 1179.36 791.23 1178.94 791.56 1178.47 791.8 1177.96 792.06 1177.4 792.19 1176.83 792.19 1175.45 792.19 1174.2 791.43 1173.58 790.22 1173.14 789.35 1173.06 788.37 1173.37 787.46 1173.67 786.54 1174.31 785.8 1175.18 785.36 1167.6 776.55 1161.05 771.08 1158.09 771.08 1157.8 771.08 1157.54 771.13 1157.33 771.24 1157.21 771.3 1157.11 771.36 1157.01 771.44 1171.59 795.04 1205.62 855.7 1218 907.45L1220.15 908.41 1229.98 908.32Z" fill="#ffc930" stroke-linejoin="round" opacity="1" stroke-width="4" stroke="none"></path><path d="M1220.33 908.03C1207.02 855.56 1171.62 794.98 1157.03 771.42 1154.52 773.25 1156.89 780.39 1161.19 793.36 1164.12 802.19 1167.76 813.18 1171.54 827.25 1178.36 852.66 1188.5 877.23 1195.8 893.37 1196.42 893.1 1197.08 892.96 1197.74 892.95 1199.55 892.95 1201.2 894 1201.97 895.62 1202.49 896.74 1202.54 897.99 1202.12 899.15 1201.7 900.31 1200.84 901.24 1199.71 901.76 1201.64 905.84 1202.84 908.19 1202.86 908.22L1220.33 908.38 1220.33 908.15Z" fill="#e2a700" stroke-linejoin="round" opacity="1" stroke-width="4" stroke="none"></path><path d="M1207.34 899.24C1205.88 897.26 1151.06 811.92 1135.34 811.92 1134.83 811.92 1134.37 812.03 1133.97 812.23L1189.2 906.06 1193.52 908.32 1213.38 908.23Z" fill="#ffc930" stroke-linejoin="round" opacity="1" stroke-width="4" stroke="none"></path><path d="M1133.98 812.22L1133.78 812.32C1133.27 812.63 1132.93 813.29 1132.76 814.29 1131.81 819.93 1136.42 835.09 1144.22 852 1149.75 864 1161.78 887.35 1179.78 908.51L1193.91 908.32 1133.98 812.22Z" fill="#e2a700" stroke-linejoin="round" opacity="1" stroke-width="4" stroke="none"></path></g><g><path d="M332.38 904.28C327.67 883.99 324.67 836.25 323.95 799.01 323.24 762.33 324.46 722.46 329.98 720.61 332.98 743.19 346.52 823.32 350.7 904.54L347.33 905.21 336.89 905.17Z" fill="#e2a700" opacity="1" stroke-width="4" stroke="none"></path><path d="M344.66 905.2C343.01 823.16 332.94 743.16 329.95 720.62 330.08 720.56 330.22 720.53 330.36 720.53 336.57 720.77 343.53 743.71 351.04 788.73 350.83 788.76 350.62 788.8 350.42 788.84 347.86 789.43 346.25 792 346.84 794.56 347.34 796.74 349.25 798.27 351.48 798.27 351.84 798.27 352.2 798.22 352.56 798.14 354.33 809.32 356.08 821.35 357.9 834.95 360.98 858.01 361.03 876.19 360.53 887.38 359.98 899.51 357.72 903.64 353.57 905.27L349.87 905.21 346.83 905.2Z" fill="#ffc930" stroke-linejoin="round" opacity="1" stroke-width="4" stroke="none"></path><path d="M315.59 903.48C313.81 903.25 305.13 879.34 298.39 854.91 299.08 854.88 299.75 854.69 300.34 854.36 302.35 853.23 303.06 850.68 301.93 848.68 301.19 847.37 299.8 846.56 298.3 846.56 297.58 846.56 296.88 846.74 296.26 847.09 293.45 836.89 291.31 829.03 289.72 823.02 285.49 807.05 282.26 788.12 281.09 772.37 282.37 772.29 283.55 771.74 284.4 770.8 285.26 769.86 285.7 768.64 285.64 767.36 285.52 764.82 283.43 762.82 280.88 762.82 280.8 762.82 280.72 762.82 280.64 762.82 280.46 753.24 280.62 742.01 283.35 740.09 283.51 739.97 283.68 739.87 283.86 739.79 291.38 761.88 326.76 874.54 331.11 904.94L330.42 905.16H319.42V905.18Z" fill="#e2a700" stroke-linejoin="round" opacity="1" stroke-width="4" stroke="none"></path><path d="M330.41 905.17C326.02 874.6 290.84 762.05 283.83 739.8 284.17 739.63 284.53 739.56 284.9 739.56 290.5 739.56 298.13 757.75 304.86 775.55 309.8 788.62 313.18 800.16 318.79 819.3 320.85 826.33 323.18 834.3 325.99 843.7 336.23 877.98 336.94 904.89 336.95 905.16L336.95 905.17H330.41V905.19Z" fill="#ffc930" opacity="1" stroke-width="4" stroke="none"></path><path d="M293.49 905.16C290.03 902.31 286.49 899.25 282.99 896.02 283.11 895.89 283.23 895.76 283.34 895.63 284.68 894.03 284.45 891.65 282.85 890.32 282.18 889.75 281.32 889.45 280.44 889.45 279.32 889.45 278.26 889.94 277.54 890.8 260.78 874.33 248.22 856.8 248.92 850.9 249.01 850.11 249.34 849.54 249.9 849.21 250 849.16 250.09 849.11 250.19 849.08L306.79 905.17H293.49V905.16Z" fill="#e2a700" stroke-linejoin="round" opacity="1" stroke-width="4" stroke="none"></path><path d="M306.39 904.85L250.16 849.1C250.77 848.82 251.5 848.69 252.34 848.69 264.72 848.69 299.46 876.05 319.6 905.16L319.46 905.17H306.67V905.11Z" fill="#ffc930" stroke-linejoin="round" opacity="1" stroke-width="4" stroke="none"></path><path d="M354.69 894.79C356.17 884.81 362.38 861.94 372.76 838.88 380.85 820.93 391.41 803.25 402.51 789.1 402.84 789.5 403.26 789.83 403.71 790.07 404.22 790.32 404.76 790.45 405.33 790.45 406.68 790.45 407.9 789.7 408.51 788.5 408.95 787.64 409.02 786.68 408.72 785.77 408.43 784.86 407.8 784.13 406.94 783.69 414.39 774.98 420.81 769.57 423.72 769.57 424.01 769.57 424.26 769.63 424.47 769.73 424.58 769.79 424.68 769.86 424.78 769.93 410.47 793.27 377.07 853.26 364.91 904.44L362.8 905.39 353.15 905.3Z" fill="#ffc930" stroke-linejoin="round" opacity="1" stroke-width="4" stroke="none"></path><path d="M362.62 905.02C375.69 853.13 410.44 793.21 424.76 769.91 427.22 771.72 424.9 778.79 420.68 791.61 417.81 800.34 414.23 811.21 410.52 825.13 403.82 850.25 393.87 874.55 386.7 890.52 386.1 890.25 385.45 890.11 384.8 890.1 383.02 890.1 381.4 891.14 380.65 892.74 380.13 893.85 380.08 895.09 380.5 896.23 380.92 897.38 381.76 898.3 382.86 898.81 380.97 902.85 379.79 905.17 379.78 905.2L362.62 905.36 362.62 905.13Z" fill="#e2a700" stroke-linejoin="round" opacity="1" stroke-width="4" stroke="none"></path><path d="M375.37 896.32C376.81 894.36 430.63 809.97 446.05 809.97 446.55 809.97 447.01 810.07 447.4 810.27L393.18 903.06 388.94 905.3 369.45 905.22Z" fill="#ffc930" stroke-linejoin="round" opacity="1" stroke-width="4" stroke="none"></path><path d="M447.39 810.26L447.58 810.36C448.09 810.66 448.42 811.31 448.59 812.3 449.52 817.89 445 832.88 437.34 849.61 431.91 861.47 420.1 884.57 402.43 905.48L388.55 905.3 447.39 810.26Z" fill="#e2a700" stroke-linejoin="round" opacity="1" stroke-width="4" stroke="none"></path></g><g><path d="M804.84 285.23C821.55 276.93 838.47 271.99 848.76 276.09 870.62 283.34 877.66 312.44 883.01 325.68 883.01 325.68 892.26 326.21 893.42 329.88 894.89 334.3 889 340.81 889 340.81 895.73 356.15 897.3 366.13 894.05 375.38 891.31 383.05 881.44 392.5 859.27 391.35L861.58 402.06 794.86 409.21C791.29 393.76 782.89 366.87 781.2 356.89 778.58 338.5 776.9 299.2 804.84 285.23Z" fill="#ab5a4c" opacity="1" stroke-width="4" stroke="none"></path><path d="M554.15 1038.56V1038.35C557.2 1021.54 560.98 1005.99 565.61 990.97 566.03 989.39 566.55 987.71 567.08 986.03L568.02 982.88 568.13 982.56 657.33 998.43 657.22 998.74C653.65 1005.78 651.13 1012.82 649.34 1019.44 647.66 1025.85 647.66 1031.1 649.13 1035.2 652.5 1044.76 658.07 1052.33 663.32 1059.68L663.74 1060.21C670.57 1069.56 677.08 1078.91 677.71 1090.36L554.15 1038.56Z" fill="#9e76dd" opacity="1" stroke-width="4" stroke="none"></path><path d="M838.99 386.09C850.55 389.77 859.16 391.45 859.27 391.45L861.48 401.54 857.27 405.22 838.99 386.09Z" fill="#1a1919" opacity="0.2" stroke-width="4" stroke="none"></path><path d="M595.66 909.12L595.23 909.33C589.46 921.94 584.41 934.23 580 946.73 575.69 958.61 571.91 970.58 568.02 983.09L567.92 983.4 656.91 999.16 657.01 999.06C665.42 981.41 678.76 960.39 689.48 944.21L689.59 943.58 595.66 909.12Z" fill="#ab5a4c" opacity="1" stroke-width="4" stroke="none"></path><path d="M778.58 1038.35C776.9 1023.85 775.85 1009.67 775.11 996.01 774.37 983.72 774.16 971.42 774.48 958.61L774.69 957.98 873.77 957.66 873.87 958.71C870.2 978.88 866.31 1020.49 866.31 1020.49L778.58 1038.35Z" fill="#ab5a4c" opacity="1" stroke-width="4" stroke="none"></path><path d="M609 730.72C607.53 730.72 605.95 730.4 604.27 729.77 604.27 729.77 604.06 729.77 603.85 729.87 602.9 730.08 600.8 730.61 598.18 730.61 593.55 730.61 589.88 728.82 587.77 725.46H586.83 584.73C576.85 725.46 572.33 723.36 571.07 719.16 570.96 719.16 570.75 719.16 570.44 719.26 569.81 719.26 568.86 719.37 567.92 719.37 564.87 719.37 559.51 718.95 557.52 716.01L557.41 715.9C555.31 712.85 552.47 708.55 562.35 692.58 557.2 695.31 550.58 697.09 545.54 697.09 541.23 697.09 538.5 695.83 537.87 693.52 536.92 689.21 547.43 680.28 563.29 666.73L563.92 666.2C571.49 659.79 582.73 649.18 593.76 639.1L646.09 682.7C646.09 682.8 638.52 698.88 622.34 716.53 622.34 716.53 618.87 730.72 609 730.72Z" fill="#ab5a4c" opacity="1" stroke-width="4" stroke="none"></path><path d="M777.84 344.28C778.89 350.79 782.15 362.56 787.3 380.95 787.3 380.95 805.68 380.63 815.35 370.23 815.35 370.23 787.4 352.05 798.86 335.14 809.36 322.11 834.89 338.29 834.89 338.29 850.86 331.56 842.25 309.08 842.25 309.08 864.84 316.43 875.97 307.08 875.97 307.08 869.78 290.27 861.79 284.49 851.7 280.71 841.3 276.61 823.65 278.4 806.95 286.6 778.89 300.78 775.11 325.89 777.84 344.28Z" fill="#21132e" opacity="1" stroke-width="4" stroke="none"></path><path d="M1116.58 718C1109.12 718 1099.45 704.66 1093.04 695.73L1092.73 695.2C1090.42 692.05 1088.74 687.01 1087.16 687.95 1086.95 688.06 1087.16 689.11 1087.16 689.11 1087.48 690.16 1088.11 691.42 1088.53 692.89 1091.05 701.51 1095.36 716.01 1090.94 717.69 1090.73 718 1090.1 718 1089.68 718 1084.01 718 1076.13 705.6 1065.94 680.18 1065.94 680.18 1046.81 664.84 1041.56 653.6L1040.3 652.02 1081.07 604.42 1083.27 605.05C1106.28 621.76 1124.77 637.42 1140.01 652.97 1141.06 654.02 1141.27 654.96 1140.85 656.01 1139.69 658.64 1133.81 660.32 1128.98 660.32 1126.56 660.32 1124.46 660 1122.88 659.16 1123.2 659.48 1142.22 686.48 1141.06 697.93 1140.64 701.93 1137.8 702.77 1135.49 702.77 1134.44 702.77 1133.71 702.56 1133.18 702.45L1132.86 702.35C1133.29 703.5 1133.6 706.65 1131.92 709.18 1131.08 710.54 1129.08 712.75 1124.77 712.75 1124.35 712.75 1123.83 712.75 1123.3 712.64 1121.52 716.22 1119.31 718 1116.58 718Z" fill="#ab5a4c" opacity="1" stroke-width="4" stroke="none"></path><path d="M593.45 639.41L593.66 639.2C597.34 635.84 601.43 632.06 605.64 627.85 642.3 591.71 669.62 565.76 669.83 565.55 670.25 564.5 715.75 463.63 734.34 439.78 749.05 420.45 770.07 408.79 794.44 407.53 793.6 404.27 791.19 395.24 791.19 395.24H860.11L862.42 405.43C862.42 405.43 864.73 405.43 864.84 405.43 866.52 405.43 891.95 406.37 909.39 411.73 937.02 419.93 964.55 470.57 988.08 513.02L991.02 518.16C998.48 531.61 1005.52 544.33 1011.51 553.26 1016.34 557.46 1026.33 563.87 1037.99 571.43 1051.54 580.15 1066.25 592.55 1083.27 604.95L1041.56 653.6H1041.46C1025.7 648.03 994.28 633.42 972.74 616.19 936.49 586.98 909.6 534.66 908.55 532.35L895.41 590.66 779.1 590.45 770.07 539.6C767.02 545.27 764.08 551.37 760.93 557.98L759.88 560.3C752.1 576.69 742.43 596.86 728.78 614.09 703.98 645.19 646.09 683.54 645.56 683.86L593.45 639.41Z" fill="#3c2c5b" opacity="1" stroke-width="4" stroke="none"></path><path d="M785.41 285.23C772.06 285.23 761.24 274.41 761.24 261.06 761.24 247.72 772.06 236.9 785.41 236.9 798.75 236.9 809.57 247.72 809.57 261.06 809.57 274.41 798.75 285.23 785.41 285.23Z" fill="#ffa0dc" opacity="1" stroke-width="4" stroke="none"></path><path d="M869.88 333.56C871.73 333.56 873.24 332.06 873.24 330.2 873.24 328.34 871.73 326.84 869.88 326.84 868.02 326.84 866.52 328.34 866.52 330.2 866.52 332.06 868.02 333.56 869.88 333.56Z" fill="#21132e" opacity="1" stroke-width="4" stroke="none"></path><path d="M885.33 590.66L893.52 493.89 908.55 532.35 895.41 590.66H885.33Z" fill="#000000" opacity="0.2" stroke-width="4" stroke="none"></path><path d="M750.21 579.63L764.08 507.87 770.07 539.6 751.89 576.58 750.21 579.63Z" fill="#000000" opacity="0.2" stroke-width="4" stroke="none"></path><path d="M552.05 1053.59C552.05 1053.38 552.58 1047.18 554.26 1037.51L677.71 1090.36C678.24 1094.98 676.77 1100.45 674.98 1105.6L552.05 1053.59Z" fill="#101010" opacity="1" stroke-width="4" stroke="none"></path><path d="M895.52 590.35V590.03L779.1 590.45 778.89 590.56C777.42 591.61 740.54 619.13 717.43 666.2 707.87 685.64 700.2 707.29 692.74 728.19L692.32 729.35C681.07 760.97 670.46 790.92 653.97 814.14 652.18 816.87 650.08 819.5 647.87 822.54L646.4 824.54C632.43 843.56 613.31 869.72 595.34 909.01L595.23 909.33 688.53 945.68C688.53 945.68 697.26 932.55 701.04 926.77 714.38 906.81 729.41 884.11 740.96 863.31 758.3 831.79 774.9 799.32 789.82 768.22 793.81 795.75 796.75 821.81 791.71 845.03 791.08 848.29 790.13 851.96 788.98 856.8 783.41 880.44 775.64 912.69 774.48 958.61L873.66 959.03C873.66 959.03 873.77 959.03 873.77 958.92 873.98 957.87 876.19 944.42 877.45 938.01L878.81 930.87C884.07 903.24 888.58 878.65 891 856.17 905.6 717.58 896.57 602.95 895.52 590.35Z" fill="#ffa0dc" opacity="1" stroke-width="4" stroke="none"></path><path d="M790.66 1105.07C790.66 1105.07 788.98 1099.5 786.88 1090.15 786.88 1090.15 786.88 1090.05 786.98 1090.05L920.1 1090.36 920.84 1090.47C922.83 1094.77 923.99 1099.92 924.31 1105.18V1105.49L790.66 1105.07Z" fill="#101010" opacity="1" stroke-width="4" stroke="none"></path><path d="M787.09 1090.78C781.52 1062.73 779.52 1045.6 778.58 1038.04 778.58 1037.93 778.68 1037.83 778.79 1037.72L866.41 1019.86V1020.18C866.2 1030.05 867.04 1038.04 869.25 1043.82 870.3 1046.76 871.67 1049.07 873.45 1050.86 880.49 1058.74 889.32 1063.88 896.46 1068.09 906.44 1074.08 916.01 1079.75 921.05 1090.36L921.15 1090.68 787.3 1090.89C787.09 1090.89 787.09 1090.78 787.09 1090.78Z" fill="#9e76dd" opacity="1" stroke-width="4" stroke="none"></path><path d="M746.64 623.86H769.02L762.29 648.97C758.93 661.48 745.9 671.88 733.4 671.88 726.99 671.88 722.05 669.25 719 665.26" stroke="#b20271" stroke-width="4" stroke-linecap="round" stroke-linejoin="round" opacity="1" fill="none"></path><path d="M789.82 768.22C785.72 740.7 781.94 710.44 783.52 683.54" stroke="#b20271" stroke-width="4" stroke-linecap="round" opacity="1" fill="none"></path><path d="M626.33 1023.54L648.19 1023.43" stroke="#101010" stroke-width="4" stroke-linecap="round" stroke-linejoin="round" opacity="1" fill="none"></path><path d="M628.44 1040.56L649.66 1036.46" stroke="#101010" stroke-width="4" stroke-linecap="round" stroke-linejoin="round" opacity="1" fill="none"></path><path d="M770.07 539.6L762.61 499.88" stroke="#000000" stroke-width="4" stroke-linecap="round" stroke-linejoin="round" opacity="1" fill="none"></path><path d="M908.55 532.35L902.66 517.22" stroke="#000000" stroke-width="4" stroke-linecap="round" stroke-linejoin="round" opacity="1" fill="none"></path><path d="M881.44 351.11C879.86 352.26 874.08 353.52 871.14 349.11" stroke="#5a3a35" stroke-width="4" stroke-linecap="round" stroke-linejoin="round" opacity="1" fill="none"></path><path d="M859.37 391.45C857.27 391.14 849.92 389.35 844.77 386.3" stroke="#5a3a35" stroke-width="4" stroke-linecap="round" stroke-linejoin="round" opacity="1" fill="none"></path><path d="M824.81 353.31L813.35 348.06" stroke="#5a3a35" stroke-width="4" stroke-linecap="round" stroke-linejoin="round" opacity="1" fill="none"></path><path d="M1133.18 702.35C1133.18 702.35 1118.16 676.29 1106.7 661.79" stroke="#5a3a35" stroke-width="4" stroke-linecap="round" stroke-linejoin="round" opacity="1" fill="none"></path><path d="M1122.88 659.06C1122.88 659.06 1110.28 648.55 1107.12 644.35" stroke="#5a3a35" stroke-width="4" stroke-linecap="round" stroke-linejoin="round" opacity="1" fill="none"></path><path d="M1123.3 712.54C1123.3 712.54 1106.81 686.69 1095.36 672.19" stroke="#5a3a35" stroke-width="4" stroke-linecap="round" stroke-linejoin="round" opacity="1" fill="none"></path><path d="M562.35 692.58C562.35 692.58 567.08 685.75 572.44 678.5" stroke="#5a3a35" stroke-width="4" stroke-linecap="round" stroke-linejoin="round" opacity="1" fill="none"></path><path d="M849.71 1052.22L869.15 1043.82" stroke="#101010" stroke-width="4" stroke-linecap="round" stroke-linejoin="round" opacity="1" fill="none"></path><path d="M858.32 1066.93L876.92 1054.53" stroke="#101010" stroke-width="4" stroke-linecap="round" stroke-linejoin="round" opacity="1" fill="none"></path><path d="M820.5 671.67C808 671.67 800.43 661.48 803.79 648.76L810.52 623.65H856.12L849.39 648.76C846.14 661.48 833.11 671.67 820.5 671.67Z" stroke="#b20271" stroke-width="4" stroke-linecap="round" stroke-linejoin="round" opacity="1" fill="none"></path><path d="M849.08 275.77C838.68 271.68 819.76 270.41 803.06 278.72 775.11 292.69 773.43 319.9 776.06 338.39 776.58 341.76 778.37 348.9 780.68 357.52L871.98 297.94C866.83 288.28 859.79 279.35 849.08 275.77Z" fill="#9e76dd" opacity="1" stroke-width="4" stroke="none"></path><path d="M571.07 719.16C571.07 719.16 581.89 702.24 585.88 693.84" stroke="#5a3a35" stroke-width="4" stroke-linecap="round" stroke-linejoin="round" opacity="1" fill="none"></path><path d="M587.77 725.46C587.77 725.46 595.13 705.5 599.12 697.09" stroke="#5a3a35" stroke-width="4" stroke-linecap="round" stroke-linejoin="round" opacity="1" fill="none"></path><path d="M604.27 729.77C604.27 729.77 605.32 719.89 609.31 711.49" stroke="#5a3a35" stroke-width="4" stroke-linecap="round" stroke-linejoin="round" opacity="1" fill="none"></path></g><g><path d="M1393.91 1088.48C1375.38 1100.06 1348.11 1089.72 1348.11 1089.72 1348.11 1089.72 1350.84 1060.65 1369.36 1049.12 1387.89 1037.59 1415.16 1047.88 1415.16 1047.88 1415.16 1047.88 1412.43 1076.91 1393.91 1088.48Z" fill="#3c2c5b" opacity="1" stroke-width="4" stroke="none"></path><path d="M1393.91 1088.48C1375.38 1100.06 1348.11 1089.72 1348.11 1089.72L1415.16 1047.88C1415.16 1047.88 1412.43 1076.91 1393.91 1088.48Z" fill="#141414" opacity="0.2" stroke-width="4" stroke="none"></path><path d="M1342.4 1093.47L1414.29 1048.6" stroke="#000000" stroke-width="4" stroke-linecap="round" stroke-linejoin="round" opacity="1" fill="none"></path><path d="M1408.37 1069.96L1387.73 1065.17 1392.52 1044.54" stroke="#000000" stroke-width="4" stroke-linecap="round" stroke-linejoin="round" opacity="1" fill="none"></path><path d="M1395.81 1086.58L1364.89 1079.43 1372.04 1048.5" stroke="#000000" stroke-width="4" stroke-linecap="round" stroke-linejoin="round" opacity="1" fill="none"></path></g></svg>